ISO-10303-21;
HEADER;
/* Generated by software containing ST-Developer
 * from STEP Tools, Inc. (www.steptools.com) 
 */

FILE_DESCRIPTION(
/* description */ (''),
/* implementation_level */ '2;1');

FILE_NAME(
/* name */ 
'C:\\Users\\lgant\\Littelfuse, Inc\\Power Semi \X2\2013\X0\ Technical 
Marketing - Documents\\General\\Resources\\3D Models\\Discrete\\PLUS-2
47-3L.stp',
/* time_stamp */ '2022-11-07T16:06:09-06:00',
/* author */ ('LGant'),
/* organization */ (''),
/* preprocessor_version */ 'ST-DEVELOPER v18.1',
/* originating_system */ 'Autodesk Inventor 2021',
/* authorisation */ '');

FILE_SCHEMA (('AUTOMOTIVE_DESIGN { 1 0 10303 214 3 1 1 }'));
ENDSEC;

DATA;
#10=MECHANICAL_DESIGN_GEOMETRIC_PRESENTATION_REPRESENTATION('',(#1068,#1069,
#1070,#1071,#1072,#1073,#1074,#1075,#1076,#1077,#1078,#1079,#1080,#1081,
#1082,#1083,#1084,#1085,#1086,#1087,#1088),#1831);
#11=SHAPE_REPRESENTATION_RELATIONSHIP('SRR','None',#1838,#12);
#12=ADVANCED_BREP_SHAPE_REPRESENTATION('',(#13),#1830);
#13=MANIFOLD_SOLID_BREP('Solid1',#1149);
#14=CYLINDRICAL_SURFACE('',#1201,1.5);
#15=CYLINDRICAL_SURFACE('',#1204,1.5);
#16=FACE_BOUND('',#87,.T.);
#17=FACE_BOUND('',#135,.T.);
#18=FACE_BOUND('',#136,.T.);
#19=FACE_BOUND('',#137,.T.);
#20=CIRCLE('',#1172,1.5);
#21=CIRCLE('',#1173,1.5);
#22=CIRCLE('',#1202,1.5);
#23=CIRCLE('',#1205,1.5);
#24=FACE_OUTER_BOUND('',#84,.T.);
#25=FACE_OUTER_BOUND('',#85,.T.);
#26=FACE_OUTER_BOUND('',#86,.T.);
#27=FACE_OUTER_BOUND('',#88,.T.);
#28=FACE_OUTER_BOUND('',#89,.T.);
#29=FACE_OUTER_BOUND('',#90,.T.);
#30=FACE_OUTER_BOUND('',#91,.T.);
#31=FACE_OUTER_BOUND('',#92,.T.);
#32=FACE_OUTER_BOUND('',#93,.T.);
#33=FACE_OUTER_BOUND('',#94,.T.);
#34=FACE_OUTER_BOUND('',#95,.T.);
#35=FACE_OUTER_BOUND('',#96,.T.);
#36=FACE_OUTER_BOUND('',#97,.T.);
#37=FACE_OUTER_BOUND('',#98,.T.);
#38=FACE_OUTER_BOUND('',#99,.T.);
#39=FACE_OUTER_BOUND('',#100,.T.);
#40=FACE_OUTER_BOUND('',#101,.T.);
#41=FACE_OUTER_BOUND('',#102,.T.);
#42=FACE_OUTER_BOUND('',#103,.T.);
#43=FACE_OUTER_BOUND('',#104,.T.);
#44=FACE_OUTER_BOUND('',#105,.T.);
#45=FACE_OUTER_BOUND('',#106,.T.);
#46=FACE_OUTER_BOUND('',#107,.T.);
#47=FACE_OUTER_BOUND('',#108,.T.);
#48=FACE_OUTER_BOUND('',#109,.T.);
#49=FACE_OUTER_BOUND('',#110,.T.);
#50=FACE_OUTER_BOUND('',#111,.T.);
#51=FACE_OUTER_BOUND('',#112,.T.);
#52=FACE_OUTER_BOUND('',#113,.T.);
#53=FACE_OUTER_BOUND('',#114,.T.);
#54=FACE_OUTER_BOUND('',#115,.T.);
#55=FACE_OUTER_BOUND('',#116,.T.);
#56=FACE_OUTER_BOUND('',#117,.T.);
#57=FACE_OUTER_BOUND('',#118,.T.);
#58=FACE_OUTER_BOUND('',#119,.T.);
#59=FACE_OUTER_BOUND('',#120,.T.);
#60=FACE_OUTER_BOUND('',#121,.T.);
#61=FACE_OUTER_BOUND('',#122,.T.);
#62=FACE_OUTER_BOUND('',#123,.T.);
#63=FACE_OUTER_BOUND('',#124,.T.);
#64=FACE_OUTER_BOUND('',#125,.T.);
#65=FACE_OUTER_BOUND('',#126,.T.);
#66=FACE_OUTER_BOUND('',#127,.T.);
#67=FACE_OUTER_BOUND('',#128,.T.);
#68=FACE_OUTER_BOUND('',#129,.T.);
#69=FACE_OUTER_BOUND('',#130,.T.);
#70=FACE_OUTER_BOUND('',#131,.T.);
#71=FACE_OUTER_BOUND('',#132,.T.);
#72=FACE_OUTER_BOUND('',#133,.T.);
#73=FACE_OUTER_BOUND('',#134,.T.);
#74=FACE_OUTER_BOUND('',#138,.T.);
#75=FACE_OUTER_BOUND('',#139,.T.);
#76=FACE_OUTER_BOUND('',#140,.T.);
#77=FACE_OUTER_BOUND('',#141,.T.);
#78=FACE_OUTER_BOUND('',#142,.T.);
#79=FACE_OUTER_BOUND('',#143,.T.);
#80=FACE_OUTER_BOUND('',#144,.T.);
#81=FACE_OUTER_BOUND('',#145,.T.);
#82=FACE_OUTER_BOUND('',#146,.T.);
#83=FACE_OUTER_BOUND('',#147,.T.);
#84=EDGE_LOOP('',(#702,#703,#704,#705,#706,#707));
#85=EDGE_LOOP('',(#708,#709,#710,#711));
#86=EDGE_LOOP('',(#712,#713,#714,#715));
#87=EDGE_LOOP('',(#716,#717,#718,#719,#720,#721));
#88=EDGE_LOOP('',(#722,#723,#724,#725,#726,#727));
#89=EDGE_LOOP('',(#728,#729,#730,#731));
#90=EDGE_LOOP('',(#732,#733,#734,#735,#736,#737,#738,#739,#740,#741,#742,
#743));
#91=EDGE_LOOP('',(#744,#745,#746,#747));
#92=EDGE_LOOP('',(#748,#749,#750,#751));
#93=EDGE_LOOP('',(#752,#753,#754,#755));
#94=EDGE_LOOP('',(#756,#757,#758,#759));
#95=EDGE_LOOP('',(#760,#761,#762,#763));
#96=EDGE_LOOP('',(#764,#765,#766,#767));
#97=EDGE_LOOP('',(#768,#769,#770,#771));
#98=EDGE_LOOP('',(#772,#773,#774,#775));
#99=EDGE_LOOP('',(#776,#777,#778,#779));
#100=EDGE_LOOP('',(#780,#781,#782,#783));
#101=EDGE_LOOP('',(#784,#785,#786,#787));
#102=EDGE_LOOP('',(#788,#789,#790,#791));
#103=EDGE_LOOP('',(#792,#793,#794,#795,#796,#797,#798,#799,#800,#801));
#104=EDGE_LOOP('',(#802,#803,#804,#805));
#105=EDGE_LOOP('',(#806,#807,#808,#809));
#106=EDGE_LOOP('',(#810,#811,#812,#813,#814,#815,#816,#817,#818,#819));
#107=EDGE_LOOP('',(#820,#821,#822,#823));
#108=EDGE_LOOP('',(#824,#825,#826,#827));
#109=EDGE_LOOP('',(#828,#829,#830,#831));
#110=EDGE_LOOP('',(#832,#833,#834,#835));
#111=EDGE_LOOP('',(#836,#837,#838,#839,#840,#841,#842,#843,#844,#845));
#112=EDGE_LOOP('',(#846,#847,#848,#849));
#113=EDGE_LOOP('',(#850,#851,#852,#853));
#114=EDGE_LOOP('',(#854,#855,#856,#857));
#115=EDGE_LOOP('',(#858,#859,#860,#861));
#116=EDGE_LOOP('',(#862,#863,#864,#865));
#117=EDGE_LOOP('',(#866,#867,#868,#869));
#118=EDGE_LOOP('',(#870,#871,#872,#873));
#119=EDGE_LOOP('',(#874,#875,#876,#877,#878,#879));
#120=EDGE_LOOP('',(#880,#881,#882,#883));
#121=EDGE_LOOP('',(#884,#885,#886,#887));
#122=EDGE_LOOP('',(#888,#889,#890,#891));
#123=EDGE_LOOP('',(#892,#893,#894,#895));
#124=EDGE_LOOP('',(#896,#897,#898,#899));
#125=EDGE_LOOP('',(#900,#901,#902,#903));
#126=EDGE_LOOP('',(#904,#905,#906,#907));
#127=EDGE_LOOP('',(#908,#909,#910,#911));
#128=EDGE_LOOP('',(#912,#913,#914,#915));
#129=EDGE_LOOP('',(#916,#917,#918,#919));
#130=EDGE_LOOP('',(#920,#921,#922,#923));
#131=EDGE_LOOP('',(#924,#925,#926,#927));
#132=EDGE_LOOP('',(#928,#929,#930,#931));
#133=EDGE_LOOP('',(#932,#933,#934,#935));
#134=EDGE_LOOP('',(#936,#937,#938,#939));
#135=EDGE_LOOP('',(#940,#941,#942,#943));
#136=EDGE_LOOP('',(#944,#945,#946,#947));
#137=EDGE_LOOP('',(#948,#949,#950,#951));
#138=EDGE_LOOP('',(#952,#953,#954,#955));
#139=EDGE_LOOP('',(#956,#957,#958,#959));
#140=EDGE_LOOP('',(#960,#961,#962,#963,#964,#965,#966,#967,#968,#969));
#141=EDGE_LOOP('',(#970,#971,#972,#973));
#142=EDGE_LOOP('',(#974,#975,#976,#977,#978,#979,#980,#981,#982,#983));
#143=EDGE_LOOP('',(#984,#985,#986,#987));
#144=EDGE_LOOP('',(#988,#989,#990,#991));
#145=EDGE_LOOP('',(#992,#993,#994,#995));
#146=EDGE_LOOP('',(#996,#997,#998,#999,#1000,#1001,#1002,#1003,#1004,#1005));
#147=EDGE_LOOP('',(#1006,#1007,#1008,#1009));
#148=LINE('',#1517,#298);
#149=LINE('',#1519,#299);
#150=LINE('',#1521,#300);
#151=LINE('',#1523,#301);
#152=LINE('',#1525,#302);
#153=LINE('',#1526,#303);
#154=LINE('',#1529,#304);
#155=LINE('',#1531,#305);
#156=LINE('',#1532,#306);
#157=LINE('',#1535,#307);
#158=LINE('',#1536,#308);
#159=LINE('',#1539,#309);
#160=LINE('',#1541,#310);
#161=LINE('',#1545,#311);
#162=LINE('',#1548,#312);
#163=LINE('',#1551,#313);
#164=LINE('',#1553,#314);
#165=LINE('',#1555,#315);
#166=LINE('',#1556,#316);
#167=LINE('',#1559,#317);
#168=LINE('',#1561,#318);
#169=LINE('',#1562,#319);
#170=LINE('',#1565,#320);
#171=LINE('',#1567,#321);
#172=LINE('',#1569,#322);
#173=LINE('',#1571,#323);
#174=LINE('',#1573,#324);
#175=LINE('',#1575,#325);
#176=LINE('',#1577,#326);
#177=LINE('',#1579,#327);
#178=LINE('',#1581,#328);
#179=LINE('',#1583,#329);
#180=LINE('',#1584,#330);
#181=LINE('',#1587,#331);
#182=LINE('',#1588,#332);
#183=LINE('',#1591,#333);
#184=LINE('',#1592,#334);
#185=LINE('',#1594,#335);
#186=LINE('',#1595,#336);
#187=LINE('',#1597,#337);
#188=LINE('',#1599,#338);
#189=LINE('',#1600,#339);
#190=LINE('',#1603,#340);
#191=LINE('',#1604,#341);
#192=LINE('',#1607,#342);
#193=LINE('',#1608,#343);
#194=LINE('',#1610,#344);
#195=LINE('',#1611,#345);
#196=LINE('',#1613,#346);
#197=LINE('',#1618,#347);
#198=LINE('',#1620,#348);
#199=LINE('',#1622,#349);
#200=LINE('',#1623,#350);
#201=LINE('',#1626,#351);
#202=LINE('',#1628,#352);
#203=LINE('',#1629,#353);
#204=LINE('',#1632,#354);
#205=LINE('',#1634,#355);
#206=LINE('',#1636,#356);
#207=LINE('',#1638,#357);
#208=LINE('',#1640,#358);
#209=LINE('',#1642,#359);
#210=LINE('',#1644,#360);
#211=LINE('',#1645,#361);
#212=LINE('',#1649,#362);
#213=LINE('',#1651,#363);
#214=LINE('',#1653,#364);
#215=LINE('',#1654,#365);
#216=LINE('',#1657,#366);
#217=LINE('',#1659,#367);
#218=LINE('',#1660,#368);
#219=LINE('',#1663,#369);
#220=LINE('',#1665,#370);
#221=LINE('',#1667,#371);
#222=LINE('',#1669,#372);
#223=LINE('',#1671,#373);
#224=LINE('',#1673,#374);
#225=LINE('',#1675,#375);
#226=LINE('',#1676,#376);
#227=LINE('',#1679,#377);
#228=LINE('',#1680,#378);
#229=LINE('',#1683,#379);
#230=LINE('',#1684,#380);
#231=LINE('',#1688,#381);
#232=LINE('',#1690,#382);
#233=LINE('',#1692,#383);
#234=LINE('',#1693,#384);
#235=LINE('',#1696,#385);
#236=LINE('',#1698,#386);
#237=LINE('',#1699,#387);
#238=LINE('',#1702,#388);
#239=LINE('',#1704,#389);
#240=LINE('',#1706,#390);
#241=LINE('',#1708,#391);
#242=LINE('',#1710,#392);
#243=LINE('',#1712,#393);
#244=LINE('',#1714,#394);
#245=LINE('',#1715,#395);
#246=LINE('',#1718,#396);
#247=LINE('',#1719,#397);
#248=LINE('',#1722,#398);
#249=LINE('',#1724,#399);
#250=LINE('',#1725,#400);
#251=LINE('',#1728,#401);
#252=LINE('',#1729,#402);
#253=LINE('',#1733,#403);
#254=LINE('',#1736,#404);
#255=LINE('',#1737,#405);
#256=LINE('',#1741,#406);
#257=LINE('',#1743,#407);
#258=LINE('',#1749,#408);
#259=LINE('',#1750,#409);
#260=LINE('',#1753,#410);
#261=LINE('',#1754,#411);
#262=LINE('',#1757,#412);
#263=LINE('',#1758,#413);
#264=LINE('',#1761,#414);
#265=LINE('',#1762,#415);
#266=LINE('',#1765,#416);
#267=LINE('',#1766,#417);
#268=LINE('',#1769,#418);
#269=LINE('',#1770,#419);
#270=LINE('',#1773,#420);
#271=LINE('',#1774,#421);
#272=LINE('',#1777,#422);
#273=LINE('',#1778,#423);
#274=LINE('',#1781,#424);
#275=LINE('',#1782,#425);
#276=LINE('',#1785,#426);
#277=LINE('',#1786,#427);
#278=LINE('',#1789,#428);
#279=LINE('',#1790,#429);
#280=LINE('',#1793,#430);
#281=LINE('',#1794,#431);
#282=LINE('',#1796,#432);
#283=LINE('',#1799,#433);
#284=LINE('',#1800,#434);
#285=LINE('',#1801,#435);
#286=LINE('',#1803,#436);
#287=LINE('',#1805,#437);
#288=LINE('',#1806,#438);
#289=LINE('',#1808,#439);
#290=LINE('',#1810,#440);
#291=LINE('',#1811,#441);
#292=LINE('',#1814,#442);
#293=LINE('',#1816,#443);
#294=LINE('',#1818,#444);
#295=LINE('',#1820,#445);
#296=LINE('',#1822,#446);
#297=LINE('',#1826,#447);
#298=VECTOR('',#1237,10.);
#299=VECTOR('',#1238,10.);
#300=VECTOR('',#1239,10.);
#301=VECTOR('',#1240,10.);
#302=VECTOR('',#1241,10.);
#303=VECTOR('',#1242,10.);
#304=VECTOR('',#1245,10.);
#305=VECTOR('',#1246,10.);
#306=VECTOR('',#1247,10.);
#307=VECTOR('',#1250,10.);
#308=VECTOR('',#1251,10.);
#309=VECTOR('',#1252,10.);
#310=VECTOR('',#1253,10.);
#311=VECTOR('',#1256,10.);
#312=VECTOR('',#1259,10.);
#313=VECTOR('',#1262,10.);
#314=VECTOR('',#1263,10.);
#315=VECTOR('',#1264,10.);
#316=VECTOR('',#1265,10.);
#317=VECTOR('',#1268,10.);
#318=VECTOR('',#1269,10.);
#319=VECTOR('',#1270,10.);
#320=VECTOR('',#1273,10.);
#321=VECTOR('',#1274,10.);
#322=VECTOR('',#1275,10.);
#323=VECTOR('',#1276,10.);
#324=VECTOR('',#1277,10.);
#325=VECTOR('',#1278,10.);
#326=VECTOR('',#1279,10.);
#327=VECTOR('',#1280,10.);
#328=VECTOR('',#1281,10.);
#329=VECTOR('',#1282,10.);
#330=VECTOR('',#1283,10.);
#331=VECTOR('',#1286,10.);
#332=VECTOR('',#1287,10.);
#333=VECTOR('',#1290,10.);
#334=VECTOR('',#1291,10.);
#335=VECTOR('',#1294,10.);
#336=VECTOR('',#1295,10.);
#337=VECTOR('',#1298,10.);
#338=VECTOR('',#1301,10.);
#339=VECTOR('',#1302,10.);
#340=VECTOR('',#1305,10.);
#341=VECTOR('',#1306,10.);
#342=VECTOR('',#1309,10.);
#343=VECTOR('',#1310,10.);
#344=VECTOR('',#1313,10.);
#345=VECTOR('',#1314,10.);
#346=VECTOR('',#1317,10.);
#347=VECTOR('',#1322,10.);
#348=VECTOR('',#1323,10.);
#349=VECTOR('',#1324,10.);
#350=VECTOR('',#1325,10.);
#351=VECTOR('',#1328,10.);
#352=VECTOR('',#1329,10.);
#353=VECTOR('',#1330,10.);
#354=VECTOR('',#1333,10.);
#355=VECTOR('',#1334,10.);
#356=VECTOR('',#1335,10.);
#357=VECTOR('',#1336,10.);
#358=VECTOR('',#1337,10.);
#359=VECTOR('',#1338,10.);
#360=VECTOR('',#1339,10.);
#361=VECTOR('',#1340,10.);
#362=VECTOR('',#1343,10.);
#363=VECTOR('',#1344,10.);
#364=VECTOR('',#1345,10.);
#365=VECTOR('',#1346,10.);
#366=VECTOR('',#1349,10.);
#367=VECTOR('',#1350,10.);
#368=VECTOR('',#1351,10.);
#369=VECTOR('',#1354,10.);
#370=VECTOR('',#1355,10.);
#371=VECTOR('',#1356,10.);
#372=VECTOR('',#1357,10.);
#373=VECTOR('',#1358,10.);
#374=VECTOR('',#1359,10.);
#375=VECTOR('',#1360,10.);
#376=VECTOR('',#1361,10.);
#377=VECTOR('',#1364,10.);
#378=VECTOR('',#1365,10.);
#379=VECTOR('',#1368,10.);
#380=VECTOR('',#1369,10.);
#381=VECTOR('',#1372,10.);
#382=VECTOR('',#1373,10.);
#383=VECTOR('',#1374,10.);
#384=VECTOR('',#1375,10.);
#385=VECTOR('',#1378,10.);
#386=VECTOR('',#1379,10.);
#387=VECTOR('',#1380,10.);
#388=VECTOR('',#1383,10.);
#389=VECTOR('',#1384,10.);
#390=VECTOR('',#1385,10.);
#391=VECTOR('',#1386,10.);
#392=VECTOR('',#1387,10.);
#393=VECTOR('',#1388,10.);
#394=VECTOR('',#1389,10.);
#395=VECTOR('',#1390,10.);
#396=VECTOR('',#1393,10.);
#397=VECTOR('',#1394,10.);
#398=VECTOR('',#1397,10.);
#399=VECTOR('',#1398,10.);
#400=VECTOR('',#1399,10.);
#401=VECTOR('',#1402,10.);
#402=VECTOR('',#1403,10.);
#403=VECTOR('',#1408,10.);
#404=VECTOR('',#1411,10.);
#405=VECTOR('',#1412,10.);
#406=VECTOR('',#1417,10.);
#407=VECTOR('',#1420,10.);
#408=VECTOR('',#1429,10.);
#409=VECTOR('',#1430,10.);
#410=VECTOR('',#1433,10.);
#411=VECTOR('',#1434,10.);
#412=VECTOR('',#1437,10.);
#413=VECTOR('',#1438,10.);
#414=VECTOR('',#1441,10.);
#415=VECTOR('',#1442,10.);
#416=VECTOR('',#1445,10.);
#417=VECTOR('',#1446,10.);
#418=VECTOR('',#1449,10.);
#419=VECTOR('',#1450,10.);
#420=VECTOR('',#1453,10.);
#421=VECTOR('',#1454,10.);
#422=VECTOR('',#1457,10.);
#423=VECTOR('',#1458,10.);
#424=VECTOR('',#1461,10.);
#425=VECTOR('',#1462,10.);
#426=VECTOR('',#1465,10.);
#427=VECTOR('',#1466,10.);
#428=VECTOR('',#1469,10.);
#429=VECTOR('',#1470,10.);
#430=VECTOR('',#1473,10.);
#431=VECTOR('',#1474,10.);
#432=VECTOR('',#1477,10.);
#433=VECTOR('',#1478,10.);
#434=VECTOR('',#1479,10.);
#435=VECTOR('',#1480,10.);
#436=VECTOR('',#1481,10.);
#437=VECTOR('',#1482,10.);
#438=VECTOR('',#1483,10.);
#439=VECTOR('',#1484,10.);
#440=VECTOR('',#1485,10.);
#441=VECTOR('',#1486,10.);
#442=VECTOR('',#1491,10.);
#443=VECTOR('',#1494,10.);
#444=VECTOR('',#1497,10.);
#445=VECTOR('',#1500,10.);
#446=VECTOR('',#1503,10.);
#447=VECTOR('',#1510,10.);
#448=VERTEX_POINT('',#1515);
#449=VERTEX_POINT('',#1516);
#450=VERTEX_POINT('',#1518);
#451=VERTEX_POINT('',#1520);
#452=VERTEX_POINT('',#1522);
#453=VERTEX_POINT('',#1524);
#454=VERTEX_POINT('',#1528);
#455=VERTEX_POINT('',#1530);
#456=VERTEX_POINT('',#1534);
#457=VERTEX_POINT('',#1537);
#458=VERTEX_POINT('',#1538);
#459=VERTEX_POINT('',#1540);
#460=VERTEX_POINT('',#1542);
#461=VERTEX_POINT('',#1544);
#462=VERTEX_POINT('',#1546);
#463=VERTEX_POINT('',#1550);
#464=VERTEX_POINT('',#1552);
#465=VERTEX_POINT('',#1554);
#466=VERTEX_POINT('',#1558);
#467=VERTEX_POINT('',#1560);
#468=VERTEX_POINT('',#1564);
#469=VERTEX_POINT('',#1566);
#470=VERTEX_POINT('',#1568);
#471=VERTEX_POINT('',#1570);
#472=VERTEX_POINT('',#1572);
#473=VERTEX_POINT('',#1574);
#474=VERTEX_POINT('',#1576);
#475=VERTEX_POINT('',#1578);
#476=VERTEX_POINT('',#1580);
#477=VERTEX_POINT('',#1582);
#478=VERTEX_POINT('',#1586);
#479=VERTEX_POINT('',#1590);
#480=VERTEX_POINT('',#1602);
#481=VERTEX_POINT('',#1606);
#482=VERTEX_POINT('',#1616);
#483=VERTEX_POINT('',#1617);
#484=VERTEX_POINT('',#1619);
#485=VERTEX_POINT('',#1621);
#486=VERTEX_POINT('',#1625);
#487=VERTEX_POINT('',#1627);
#488=VERTEX_POINT('',#1631);
#489=VERTEX_POINT('',#1633);
#490=VERTEX_POINT('',#1635);
#491=VERTEX_POINT('',#1637);
#492=VERTEX_POINT('',#1639);
#493=VERTEX_POINT('',#1641);
#494=VERTEX_POINT('',#1643);
#495=VERTEX_POINT('',#1647);
#496=VERTEX_POINT('',#1648);
#497=VERTEX_POINT('',#1650);
#498=VERTEX_POINT('',#1652);
#499=VERTEX_POINT('',#1656);
#500=VERTEX_POINT('',#1658);
#501=VERTEX_POINT('',#1662);
#502=VERTEX_POINT('',#1664);
#503=VERTEX_POINT('',#1666);
#504=VERTEX_POINT('',#1668);
#505=VERTEX_POINT('',#1670);
#506=VERTEX_POINT('',#1672);
#507=VERTEX_POINT('',#1674);
#508=VERTEX_POINT('',#1678);
#509=VERTEX_POINT('',#1682);
#510=VERTEX_POINT('',#1686);
#511=VERTEX_POINT('',#1687);
#512=VERTEX_POINT('',#1689);
#513=VERTEX_POINT('',#1691);
#514=VERTEX_POINT('',#1695);
#515=VERTEX_POINT('',#1697);
#516=VERTEX_POINT('',#1701);
#517=VERTEX_POINT('',#1703);
#518=VERTEX_POINT('',#1705);
#519=VERTEX_POINT('',#1707);
#520=VERTEX_POINT('',#1709);
#521=VERTEX_POINT('',#1711);
#522=VERTEX_POINT('',#1713);
#523=VERTEX_POINT('',#1717);
#524=VERTEX_POINT('',#1721);
#525=VERTEX_POINT('',#1723);
#526=VERTEX_POINT('',#1727);
#527=VERTEX_POINT('',#1731);
#528=VERTEX_POINT('',#1735);
#529=VERTEX_POINT('',#1739);
#530=VERTEX_POINT('',#1748);
#531=VERTEX_POINT('',#1752);
#532=VERTEX_POINT('',#1756);
#533=VERTEX_POINT('',#1760);
#534=VERTEX_POINT('',#1764);
#535=VERTEX_POINT('',#1768);
#536=VERTEX_POINT('',#1772);
#537=VERTEX_POINT('',#1776);
#538=VERTEX_POINT('',#1780);
#539=VERTEX_POINT('',#1784);
#540=VERTEX_POINT('',#1788);
#541=VERTEX_POINT('',#1792);
#542=VERTEX_POINT('',#1797);
#543=VERTEX_POINT('',#1798);
#544=VERTEX_POINT('',#1802);
#545=VERTEX_POINT('',#1804);
#546=VERTEX_POINT('',#1807);
#547=VERTEX_POINT('',#1809);
#548=EDGE_CURVE('',#448,#449,#148,.T.);
#549=EDGE_CURVE('',#450,#449,#149,.T.);
#550=EDGE_CURVE('',#450,#451,#150,.T.);
#551=EDGE_CURVE('',#452,#451,#151,.T.);
#552=EDGE_CURVE('',#452,#453,#152,.T.);
#553=EDGE_CURVE('',#453,#448,#153,.T.);
#554=EDGE_CURVE('',#448,#454,#154,.T.);
#555=EDGE_CURVE('',#454,#455,#155,.T.);
#556=EDGE_CURVE('',#449,#455,#156,.T.);
#557=EDGE_CURVE('',#456,#453,#157,.T.);
#558=EDGE_CURVE('',#454,#456,#158,.T.);
#559=EDGE_CURVE('',#457,#458,#159,.T.);
#560=EDGE_CURVE('',#458,#459,#160,.T.);
#561=EDGE_CURVE('',#459,#460,#20,.T.);
#562=EDGE_CURVE('',#460,#461,#161,.T.);
#563=EDGE_CURVE('',#461,#462,#21,.T.);
#564=EDGE_CURVE('',#462,#457,#162,.T.);
#565=EDGE_CURVE('',#456,#463,#163,.T.);
#566=EDGE_CURVE('',#464,#463,#164,.T.);
#567=EDGE_CURVE('',#464,#465,#165,.T.);
#568=EDGE_CURVE('',#455,#465,#166,.T.);
#569=EDGE_CURVE('',#466,#452,#167,.T.);
#570=EDGE_CURVE('',#451,#467,#168,.T.);
#571=EDGE_CURVE('',#467,#466,#169,.T.);
#572=EDGE_CURVE('',#468,#467,#170,.T.);
#573=EDGE_CURVE('',#469,#468,#171,.T.);
#574=EDGE_CURVE('',#470,#469,#172,.T.);
#575=EDGE_CURVE('',#471,#470,#173,.T.);
#576=EDGE_CURVE('',#472,#471,#174,.T.);
#577=EDGE_CURVE('',#473,#472,#175,.T.);
#578=EDGE_CURVE('',#474,#473,#176,.T.);
#579=EDGE_CURVE('',#475,#474,#177,.T.);
#580=EDGE_CURVE('',#476,#475,#178,.T.);
#581=EDGE_CURVE('',#477,#476,#179,.T.);
#582=EDGE_CURVE('',#477,#466,#180,.T.);
#583=EDGE_CURVE('',#451,#478,#181,.T.);
#584=EDGE_CURVE('',#478,#468,#182,.F.);
#585=EDGE_CURVE('',#478,#479,#183,.T.);
#586=EDGE_CURVE('',#479,#469,#184,.F.);
#587=EDGE_CURVE('',#450,#470,#185,.T.);
#588=EDGE_CURVE('',#479,#450,#186,.T.);
#589=EDGE_CURVE('',#449,#471,#187,.T.);
#590=EDGE_CURVE('',#463,#477,#188,.T.);
#591=EDGE_CURVE('',#476,#464,#189,.T.);
#592=EDGE_CURVE('',#475,#480,#190,.F.);
#593=EDGE_CURVE('',#480,#464,#191,.T.);
#594=EDGE_CURVE('',#474,#481,#192,.F.);
#595=EDGE_CURVE('',#481,#480,#193,.T.);
#596=EDGE_CURVE('',#473,#465,#194,.T.);
#597=EDGE_CURVE('',#465,#481,#195,.T.);
#598=EDGE_CURVE('',#472,#455,#196,.T.);
#599=EDGE_CURVE('',#482,#483,#197,.T.);
#600=EDGE_CURVE('',#483,#484,#198,.T.);
#601=EDGE_CURVE('',#484,#485,#199,.T.);
#602=EDGE_CURVE('',#485,#482,#200,.T.);
#603=EDGE_CURVE('',#483,#486,#201,.T.);
#604=EDGE_CURVE('',#487,#486,#202,.T.);
#605=EDGE_CURVE('',#487,#484,#203,.T.);
#606=EDGE_CURVE('',#488,#482,#204,.T.);
#607=EDGE_CURVE('',#489,#488,#205,.T.);
#608=EDGE_CURVE('',#490,#489,#206,.T.);
#609=EDGE_CURVE('',#490,#491,#207,.T.);
#610=EDGE_CURVE('',#491,#492,#208,.T.);
#611=EDGE_CURVE('',#493,#492,#209,.T.);
#612=EDGE_CURVE('',#493,#494,#210,.T.);
#613=EDGE_CURVE('',#486,#494,#211,.T.);
#614=EDGE_CURVE('',#495,#496,#212,.T.);
#615=EDGE_CURVE('',#496,#497,#213,.T.);
#616=EDGE_CURVE('',#497,#498,#214,.T.);
#617=EDGE_CURVE('',#498,#495,#215,.T.);
#618=EDGE_CURVE('',#496,#499,#216,.T.);
#619=EDGE_CURVE('',#500,#499,#217,.T.);
#620=EDGE_CURVE('',#500,#497,#218,.T.);
#621=EDGE_CURVE('',#501,#495,#219,.T.);
#622=EDGE_CURVE('',#502,#501,#220,.T.);
#623=EDGE_CURVE('',#503,#502,#221,.T.);
#624=EDGE_CURVE('',#503,#504,#222,.T.);
#625=EDGE_CURVE('',#504,#505,#223,.T.);
#626=EDGE_CURVE('',#506,#505,#224,.T.);
#627=EDGE_CURVE('',#506,#507,#225,.T.);
#628=EDGE_CURVE('',#499,#507,#226,.T.);
#629=EDGE_CURVE('',#508,#500,#227,.T.);
#630=EDGE_CURVE('',#507,#508,#228,.T.);
#631=EDGE_CURVE('',#509,#487,#229,.T.);
#632=EDGE_CURVE('',#494,#509,#230,.T.);
#633=EDGE_CURVE('',#510,#511,#231,.T.);
#634=EDGE_CURVE('',#511,#512,#232,.T.);
#635=EDGE_CURVE('',#512,#513,#233,.T.);
#636=EDGE_CURVE('',#513,#510,#234,.T.);
#637=EDGE_CURVE('',#511,#514,#235,.T.);
#638=EDGE_CURVE('',#515,#514,#236,.T.);
#639=EDGE_CURVE('',#515,#512,#237,.T.);
#640=EDGE_CURVE('',#516,#510,#238,.T.);
#641=EDGE_CURVE('',#517,#516,#239,.T.);
#642=EDGE_CURVE('',#518,#517,#240,.T.);
#643=EDGE_CURVE('',#518,#519,#241,.T.);
#644=EDGE_CURVE('',#519,#520,#242,.T.);
#645=EDGE_CURVE('',#521,#520,#243,.T.);
#646=EDGE_CURVE('',#521,#522,#244,.T.);
#647=EDGE_CURVE('',#514,#522,#245,.T.);
#648=EDGE_CURVE('',#523,#515,#246,.T.);
#649=EDGE_CURVE('',#522,#523,#247,.T.);
#650=EDGE_CURVE('',#457,#524,#248,.T.);
#651=EDGE_CURVE('',#525,#524,#249,.T.);
#652=EDGE_CURVE('',#458,#525,#250,.T.);
#653=EDGE_CURVE('',#526,#525,#251,.T.);
#654=EDGE_CURVE('',#459,#526,#252,.T.);
#655=EDGE_CURVE('',#527,#526,#22,.T.);
#656=EDGE_CURVE('',#460,#527,#253,.T.);
#657=EDGE_CURVE('',#528,#527,#254,.T.);
#658=EDGE_CURVE('',#461,#528,#255,.T.);
#659=EDGE_CURVE('',#529,#528,#23,.T.);
#660=EDGE_CURVE('',#462,#529,#256,.T.);
#661=EDGE_CURVE('',#524,#529,#257,.T.);
#662=EDGE_CURVE('',#530,#513,#258,.T.);
#663=EDGE_CURVE('',#516,#530,#259,.T.);
#664=EDGE_CURVE('',#531,#521,#260,.T.);
#665=EDGE_CURVE('',#531,#523,#261,.T.);
#666=EDGE_CURVE('',#532,#498,#262,.T.);
#667=EDGE_CURVE('',#501,#532,#263,.T.);
#668=EDGE_CURVE('',#533,#506,#264,.T.);
#669=EDGE_CURVE('',#533,#508,#265,.T.);
#670=EDGE_CURVE('',#534,#485,#266,.T.);
#671=EDGE_CURVE('',#488,#534,#267,.T.);
#672=EDGE_CURVE('',#535,#493,#268,.T.);
#673=EDGE_CURVE('',#535,#509,#269,.T.);
#674=EDGE_CURVE('',#530,#536,#270,.T.);
#675=EDGE_CURVE('',#536,#517,#271,.T.);
#676=EDGE_CURVE('',#520,#537,#272,.T.);
#677=EDGE_CURVE('',#537,#531,#273,.T.);
#678=EDGE_CURVE('',#532,#538,#274,.T.);
#679=EDGE_CURVE('',#538,#502,#275,.T.);
#680=EDGE_CURVE('',#505,#539,#276,.T.);
#681=EDGE_CURVE('',#539,#533,#277,.T.);
#682=EDGE_CURVE('',#534,#540,#278,.T.);
#683=EDGE_CURVE('',#540,#489,#279,.T.);
#684=EDGE_CURVE('',#492,#541,#280,.T.);
#685=EDGE_CURVE('',#541,#535,#281,.T.);
#686=EDGE_CURVE('',#452,#463,#282,.T.);
#687=EDGE_CURVE('',#542,#543,#283,.T.);
#688=EDGE_CURVE('',#491,#542,#284,.T.);
#689=EDGE_CURVE('',#543,#490,#285,.T.);
#690=EDGE_CURVE('',#544,#503,#286,.T.);
#691=EDGE_CURVE('',#545,#544,#287,.T.);
#692=EDGE_CURVE('',#504,#545,#288,.T.);
#693=EDGE_CURVE('',#546,#518,#289,.T.);
#694=EDGE_CURVE('',#547,#546,#290,.T.);
#695=EDGE_CURVE('',#519,#547,#291,.T.);
#696=EDGE_CURVE('',#547,#537,#292,.T.);
#697=EDGE_CURVE('',#546,#536,#293,.T.);
#698=EDGE_CURVE('',#545,#539,#294,.T.);
#699=EDGE_CURVE('',#544,#538,#295,.T.);
#700=EDGE_CURVE('',#542,#541,#296,.T.);
#701=EDGE_CURVE('',#543,#540,#297,.T.);
#702=ORIENTED_EDGE('',*,*,#548,.T.);
#703=ORIENTED_EDGE('',*,*,#549,.F.);
#704=ORIENTED_EDGE('',*,*,#550,.T.);
#705=ORIENTED_EDGE('',*,*,#551,.F.);
#706=ORIENTED_EDGE('',*,*,#552,.T.);
#707=ORIENTED_EDGE('',*,*,#553,.T.);
#708=ORIENTED_EDGE('',*,*,#548,.F.);
#709=ORIENTED_EDGE('',*,*,#554,.T.);
#710=ORIENTED_EDGE('',*,*,#555,.T.);
#711=ORIENTED_EDGE('',*,*,#556,.F.);
#712=ORIENTED_EDGE('',*,*,#553,.F.);
#713=ORIENTED_EDGE('',*,*,#557,.F.);
#714=ORIENTED_EDGE('',*,*,#558,.F.);
#715=ORIENTED_EDGE('',*,*,#554,.F.);
#716=ORIENTED_EDGE('',*,*,#559,.T.);
#717=ORIENTED_EDGE('',*,*,#560,.T.);
#718=ORIENTED_EDGE('',*,*,#561,.T.);
#719=ORIENTED_EDGE('',*,*,#562,.T.);
#720=ORIENTED_EDGE('',*,*,#563,.T.);
#721=ORIENTED_EDGE('',*,*,#564,.T.);
#722=ORIENTED_EDGE('',*,*,#555,.F.);
#723=ORIENTED_EDGE('',*,*,#558,.T.);
#724=ORIENTED_EDGE('',*,*,#565,.T.);
#725=ORIENTED_EDGE('',*,*,#566,.F.);
#726=ORIENTED_EDGE('',*,*,#567,.T.);
#727=ORIENTED_EDGE('',*,*,#568,.F.);
#728=ORIENTED_EDGE('',*,*,#569,.T.);
#729=ORIENTED_EDGE('',*,*,#551,.T.);
#730=ORIENTED_EDGE('',*,*,#570,.T.);
#731=ORIENTED_EDGE('',*,*,#571,.T.);
#732=ORIENTED_EDGE('',*,*,#571,.F.);
#733=ORIENTED_EDGE('',*,*,#572,.F.);
#734=ORIENTED_EDGE('',*,*,#573,.F.);
#735=ORIENTED_EDGE('',*,*,#574,.F.);
#736=ORIENTED_EDGE('',*,*,#575,.F.);
#737=ORIENTED_EDGE('',*,*,#576,.F.);
#738=ORIENTED_EDGE('',*,*,#577,.F.);
#739=ORIENTED_EDGE('',*,*,#578,.F.);
#740=ORIENTED_EDGE('',*,*,#579,.F.);
#741=ORIENTED_EDGE('',*,*,#580,.F.);
#742=ORIENTED_EDGE('',*,*,#581,.F.);
#743=ORIENTED_EDGE('',*,*,#582,.T.);
#744=ORIENTED_EDGE('',*,*,#570,.F.);
#745=ORIENTED_EDGE('',*,*,#583,.T.);
#746=ORIENTED_EDGE('',*,*,#584,.T.);
#747=ORIENTED_EDGE('',*,*,#572,.T.);
#748=ORIENTED_EDGE('',*,*,#585,.T.);
#749=ORIENTED_EDGE('',*,*,#586,.T.);
#750=ORIENTED_EDGE('',*,*,#573,.T.);
#751=ORIENTED_EDGE('',*,*,#584,.F.);
#752=ORIENTED_EDGE('',*,*,#587,.T.);
#753=ORIENTED_EDGE('',*,*,#574,.T.);
#754=ORIENTED_EDGE('',*,*,#586,.F.);
#755=ORIENTED_EDGE('',*,*,#588,.T.);
#756=ORIENTED_EDGE('',*,*,#587,.F.);
#757=ORIENTED_EDGE('',*,*,#549,.T.);
#758=ORIENTED_EDGE('',*,*,#589,.T.);
#759=ORIENTED_EDGE('',*,*,#575,.T.);
#760=ORIENTED_EDGE('',*,*,#590,.T.);
#761=ORIENTED_EDGE('',*,*,#581,.T.);
#762=ORIENTED_EDGE('',*,*,#591,.T.);
#763=ORIENTED_EDGE('',*,*,#566,.T.);
#764=ORIENTED_EDGE('',*,*,#591,.F.);
#765=ORIENTED_EDGE('',*,*,#580,.T.);
#766=ORIENTED_EDGE('',*,*,#592,.T.);
#767=ORIENTED_EDGE('',*,*,#593,.T.);
#768=ORIENTED_EDGE('',*,*,#594,.T.);
#769=ORIENTED_EDGE('',*,*,#595,.T.);
#770=ORIENTED_EDGE('',*,*,#592,.F.);
#771=ORIENTED_EDGE('',*,*,#579,.T.);
#772=ORIENTED_EDGE('',*,*,#596,.T.);
#773=ORIENTED_EDGE('',*,*,#597,.T.);
#774=ORIENTED_EDGE('',*,*,#594,.F.);
#775=ORIENTED_EDGE('',*,*,#578,.T.);
#776=ORIENTED_EDGE('',*,*,#596,.F.);
#777=ORIENTED_EDGE('',*,*,#577,.T.);
#778=ORIENTED_EDGE('',*,*,#598,.T.);
#779=ORIENTED_EDGE('',*,*,#568,.T.);
#780=ORIENTED_EDGE('',*,*,#589,.F.);
#781=ORIENTED_EDGE('',*,*,#556,.T.);
#782=ORIENTED_EDGE('',*,*,#598,.F.);
#783=ORIENTED_EDGE('',*,*,#576,.T.);
#784=ORIENTED_EDGE('',*,*,#599,.T.);
#785=ORIENTED_EDGE('',*,*,#600,.T.);
#786=ORIENTED_EDGE('',*,*,#601,.T.);
#787=ORIENTED_EDGE('',*,*,#602,.T.);
#788=ORIENTED_EDGE('',*,*,#600,.F.);
#789=ORIENTED_EDGE('',*,*,#603,.T.);
#790=ORIENTED_EDGE('',*,*,#604,.F.);
#791=ORIENTED_EDGE('',*,*,#605,.T.);
#792=ORIENTED_EDGE('',*,*,#599,.F.);
#793=ORIENTED_EDGE('',*,*,#606,.F.);
#794=ORIENTED_EDGE('',*,*,#607,.F.);
#795=ORIENTED_EDGE('',*,*,#608,.F.);
#796=ORIENTED_EDGE('',*,*,#609,.T.);
#797=ORIENTED_EDGE('',*,*,#610,.T.);
#798=ORIENTED_EDGE('',*,*,#611,.F.);
#799=ORIENTED_EDGE('',*,*,#612,.T.);
#800=ORIENTED_EDGE('',*,*,#613,.F.);
#801=ORIENTED_EDGE('',*,*,#603,.F.);
#802=ORIENTED_EDGE('',*,*,#614,.T.);
#803=ORIENTED_EDGE('',*,*,#615,.T.);
#804=ORIENTED_EDGE('',*,*,#616,.T.);
#805=ORIENTED_EDGE('',*,*,#617,.T.);
#806=ORIENTED_EDGE('',*,*,#615,.F.);
#807=ORIENTED_EDGE('',*,*,#618,.T.);
#808=ORIENTED_EDGE('',*,*,#619,.F.);
#809=ORIENTED_EDGE('',*,*,#620,.T.);
#810=ORIENTED_EDGE('',*,*,#614,.F.);
#811=ORIENTED_EDGE('',*,*,#621,.F.);
#812=ORIENTED_EDGE('',*,*,#622,.F.);
#813=ORIENTED_EDGE('',*,*,#623,.F.);
#814=ORIENTED_EDGE('',*,*,#624,.T.);
#815=ORIENTED_EDGE('',*,*,#625,.T.);
#816=ORIENTED_EDGE('',*,*,#626,.F.);
#817=ORIENTED_EDGE('',*,*,#627,.T.);
#818=ORIENTED_EDGE('',*,*,#628,.F.);
#819=ORIENTED_EDGE('',*,*,#618,.F.);
#820=ORIENTED_EDGE('',*,*,#629,.T.);
#821=ORIENTED_EDGE('',*,*,#619,.T.);
#822=ORIENTED_EDGE('',*,*,#628,.T.);
#823=ORIENTED_EDGE('',*,*,#630,.T.);
#824=ORIENTED_EDGE('',*,*,#631,.T.);
#825=ORIENTED_EDGE('',*,*,#604,.T.);
#826=ORIENTED_EDGE('',*,*,#613,.T.);
#827=ORIENTED_EDGE('',*,*,#632,.T.);
#828=ORIENTED_EDGE('',*,*,#633,.T.);
#829=ORIENTED_EDGE('',*,*,#634,.T.);
#830=ORIENTED_EDGE('',*,*,#635,.T.);
#831=ORIENTED_EDGE('',*,*,#636,.T.);
#832=ORIENTED_EDGE('',*,*,#634,.F.);
#833=ORIENTED_EDGE('',*,*,#637,.T.);
#834=ORIENTED_EDGE('',*,*,#638,.F.);
#835=ORIENTED_EDGE('',*,*,#639,.T.);
#836=ORIENTED_EDGE('',*,*,#633,.F.);
#837=ORIENTED_EDGE('',*,*,#640,.F.);
#838=ORIENTED_EDGE('',*,*,#641,.F.);
#839=ORIENTED_EDGE('',*,*,#642,.F.);
#840=ORIENTED_EDGE('',*,*,#643,.T.);
#841=ORIENTED_EDGE('',*,*,#644,.T.);
#842=ORIENTED_EDGE('',*,*,#645,.F.);
#843=ORIENTED_EDGE('',*,*,#646,.T.);
#844=ORIENTED_EDGE('',*,*,#647,.F.);
#845=ORIENTED_EDGE('',*,*,#637,.F.);
#846=ORIENTED_EDGE('',*,*,#648,.T.);
#847=ORIENTED_EDGE('',*,*,#638,.T.);
#848=ORIENTED_EDGE('',*,*,#647,.T.);
#849=ORIENTED_EDGE('',*,*,#649,.T.);
#850=ORIENTED_EDGE('',*,*,#559,.F.);
#851=ORIENTED_EDGE('',*,*,#650,.T.);
#852=ORIENTED_EDGE('',*,*,#651,.F.);
#853=ORIENTED_EDGE('',*,*,#652,.F.);
#854=ORIENTED_EDGE('',*,*,#560,.F.);
#855=ORIENTED_EDGE('',*,*,#652,.T.);
#856=ORIENTED_EDGE('',*,*,#653,.F.);
#857=ORIENTED_EDGE('',*,*,#654,.F.);
#858=ORIENTED_EDGE('',*,*,#561,.F.);
#859=ORIENTED_EDGE('',*,*,#654,.T.);
#860=ORIENTED_EDGE('',*,*,#655,.F.);
#861=ORIENTED_EDGE('',*,*,#656,.F.);
#862=ORIENTED_EDGE('',*,*,#562,.F.);
#863=ORIENTED_EDGE('',*,*,#656,.T.);
#864=ORIENTED_EDGE('',*,*,#657,.F.);
#865=ORIENTED_EDGE('',*,*,#658,.F.);
#866=ORIENTED_EDGE('',*,*,#563,.F.);
#867=ORIENTED_EDGE('',*,*,#658,.T.);
#868=ORIENTED_EDGE('',*,*,#659,.F.);
#869=ORIENTED_EDGE('',*,*,#660,.F.);
#870=ORIENTED_EDGE('',*,*,#564,.F.);
#871=ORIENTED_EDGE('',*,*,#660,.T.);
#872=ORIENTED_EDGE('',*,*,#661,.F.);
#873=ORIENTED_EDGE('',*,*,#650,.F.);
#874=ORIENTED_EDGE('',*,*,#661,.T.);
#875=ORIENTED_EDGE('',*,*,#659,.T.);
#876=ORIENTED_EDGE('',*,*,#657,.T.);
#877=ORIENTED_EDGE('',*,*,#655,.T.);
#878=ORIENTED_EDGE('',*,*,#653,.T.);
#879=ORIENTED_EDGE('',*,*,#651,.T.);
#880=ORIENTED_EDGE('',*,*,#583,.F.);
#881=ORIENTED_EDGE('',*,*,#550,.F.);
#882=ORIENTED_EDGE('',*,*,#588,.F.);
#883=ORIENTED_EDGE('',*,*,#585,.F.);
#884=ORIENTED_EDGE('',*,*,#597,.F.);
#885=ORIENTED_EDGE('',*,*,#567,.F.);
#886=ORIENTED_EDGE('',*,*,#593,.F.);
#887=ORIENTED_EDGE('',*,*,#595,.F.);
#888=ORIENTED_EDGE('',*,*,#636,.F.);
#889=ORIENTED_EDGE('',*,*,#662,.F.);
#890=ORIENTED_EDGE('',*,*,#663,.F.);
#891=ORIENTED_EDGE('',*,*,#640,.T.);
#892=ORIENTED_EDGE('',*,*,#649,.F.);
#893=ORIENTED_EDGE('',*,*,#646,.F.);
#894=ORIENTED_EDGE('',*,*,#664,.F.);
#895=ORIENTED_EDGE('',*,*,#665,.T.);
#896=ORIENTED_EDGE('',*,*,#617,.F.);
#897=ORIENTED_EDGE('',*,*,#666,.F.);
#898=ORIENTED_EDGE('',*,*,#667,.F.);
#899=ORIENTED_EDGE('',*,*,#621,.T.);
#900=ORIENTED_EDGE('',*,*,#630,.F.);
#901=ORIENTED_EDGE('',*,*,#627,.F.);
#902=ORIENTED_EDGE('',*,*,#668,.F.);
#903=ORIENTED_EDGE('',*,*,#669,.T.);
#904=ORIENTED_EDGE('',*,*,#602,.F.);
#905=ORIENTED_EDGE('',*,*,#670,.F.);
#906=ORIENTED_EDGE('',*,*,#671,.F.);
#907=ORIENTED_EDGE('',*,*,#606,.T.);
#908=ORIENTED_EDGE('',*,*,#632,.F.);
#909=ORIENTED_EDGE('',*,*,#612,.F.);
#910=ORIENTED_EDGE('',*,*,#672,.F.);
#911=ORIENTED_EDGE('',*,*,#673,.T.);
#912=ORIENTED_EDGE('',*,*,#663,.T.);
#913=ORIENTED_EDGE('',*,*,#674,.T.);
#914=ORIENTED_EDGE('',*,*,#675,.T.);
#915=ORIENTED_EDGE('',*,*,#641,.T.);
#916=ORIENTED_EDGE('',*,*,#664,.T.);
#917=ORIENTED_EDGE('',*,*,#645,.T.);
#918=ORIENTED_EDGE('',*,*,#676,.T.);
#919=ORIENTED_EDGE('',*,*,#677,.T.);
#920=ORIENTED_EDGE('',*,*,#667,.T.);
#921=ORIENTED_EDGE('',*,*,#678,.T.);
#922=ORIENTED_EDGE('',*,*,#679,.T.);
#923=ORIENTED_EDGE('',*,*,#622,.T.);
#924=ORIENTED_EDGE('',*,*,#668,.T.);
#925=ORIENTED_EDGE('',*,*,#626,.T.);
#926=ORIENTED_EDGE('',*,*,#680,.T.);
#927=ORIENTED_EDGE('',*,*,#681,.T.);
#928=ORIENTED_EDGE('',*,*,#671,.T.);
#929=ORIENTED_EDGE('',*,*,#682,.T.);
#930=ORIENTED_EDGE('',*,*,#683,.T.);
#931=ORIENTED_EDGE('',*,*,#607,.T.);
#932=ORIENTED_EDGE('',*,*,#672,.T.);
#933=ORIENTED_EDGE('',*,*,#611,.T.);
#934=ORIENTED_EDGE('',*,*,#684,.T.);
#935=ORIENTED_EDGE('',*,*,#685,.T.);
#936=ORIENTED_EDGE('',*,*,#569,.F.);
#937=ORIENTED_EDGE('',*,*,#582,.F.);
#938=ORIENTED_EDGE('',*,*,#590,.F.);
#939=ORIENTED_EDGE('',*,*,#686,.F.);
#940=ORIENTED_EDGE('',*,*,#687,.F.);
#941=ORIENTED_EDGE('',*,*,#688,.F.);
#942=ORIENTED_EDGE('',*,*,#609,.F.);
#943=ORIENTED_EDGE('',*,*,#689,.F.);
#944=ORIENTED_EDGE('',*,*,#690,.F.);
#945=ORIENTED_EDGE('',*,*,#691,.F.);
#946=ORIENTED_EDGE('',*,*,#692,.F.);
#947=ORIENTED_EDGE('',*,*,#624,.F.);
#948=ORIENTED_EDGE('',*,*,#693,.F.);
#949=ORIENTED_EDGE('',*,*,#694,.F.);
#950=ORIENTED_EDGE('',*,*,#695,.F.);
#951=ORIENTED_EDGE('',*,*,#643,.F.);
#952=ORIENTED_EDGE('',*,*,#552,.F.);
#953=ORIENTED_EDGE('',*,*,#686,.T.);
#954=ORIENTED_EDGE('',*,*,#565,.F.);
#955=ORIENTED_EDGE('',*,*,#557,.T.);
#956=ORIENTED_EDGE('',*,*,#695,.T.);
#957=ORIENTED_EDGE('',*,*,#696,.T.);
#958=ORIENTED_EDGE('',*,*,#676,.F.);
#959=ORIENTED_EDGE('',*,*,#644,.F.);
#960=ORIENTED_EDGE('',*,*,#635,.F.);
#961=ORIENTED_EDGE('',*,*,#639,.F.);
#962=ORIENTED_EDGE('',*,*,#648,.F.);
#963=ORIENTED_EDGE('',*,*,#665,.F.);
#964=ORIENTED_EDGE('',*,*,#677,.F.);
#965=ORIENTED_EDGE('',*,*,#696,.F.);
#966=ORIENTED_EDGE('',*,*,#694,.T.);
#967=ORIENTED_EDGE('',*,*,#697,.T.);
#968=ORIENTED_EDGE('',*,*,#674,.F.);
#969=ORIENTED_EDGE('',*,*,#662,.T.);
#970=ORIENTED_EDGE('',*,*,#692,.T.);
#971=ORIENTED_EDGE('',*,*,#698,.T.);
#972=ORIENTED_EDGE('',*,*,#680,.F.);
#973=ORIENTED_EDGE('',*,*,#625,.F.);
#974=ORIENTED_EDGE('',*,*,#616,.F.);
#975=ORIENTED_EDGE('',*,*,#620,.F.);
#976=ORIENTED_EDGE('',*,*,#629,.F.);
#977=ORIENTED_EDGE('',*,*,#669,.F.);
#978=ORIENTED_EDGE('',*,*,#681,.F.);
#979=ORIENTED_EDGE('',*,*,#698,.F.);
#980=ORIENTED_EDGE('',*,*,#691,.T.);
#981=ORIENTED_EDGE('',*,*,#699,.T.);
#982=ORIENTED_EDGE('',*,*,#678,.F.);
#983=ORIENTED_EDGE('',*,*,#666,.T.);
#984=ORIENTED_EDGE('',*,*,#688,.T.);
#985=ORIENTED_EDGE('',*,*,#700,.T.);
#986=ORIENTED_EDGE('',*,*,#684,.F.);
#987=ORIENTED_EDGE('',*,*,#610,.F.);
#988=ORIENTED_EDGE('',*,*,#693,.T.);
#989=ORIENTED_EDGE('',*,*,#642,.T.);
#990=ORIENTED_EDGE('',*,*,#675,.F.);
#991=ORIENTED_EDGE('',*,*,#697,.F.);
#992=ORIENTED_EDGE('',*,*,#690,.T.);
#993=ORIENTED_EDGE('',*,*,#623,.T.);
#994=ORIENTED_EDGE('',*,*,#679,.F.);
#995=ORIENTED_EDGE('',*,*,#699,.F.);
#996=ORIENTED_EDGE('',*,*,#601,.F.);
#997=ORIENTED_EDGE('',*,*,#605,.F.);
#998=ORIENTED_EDGE('',*,*,#631,.F.);
#999=ORIENTED_EDGE('',*,*,#673,.F.);
#1000=ORIENTED_EDGE('',*,*,#685,.F.);
#1001=ORIENTED_EDGE('',*,*,#700,.F.);
#1002=ORIENTED_EDGE('',*,*,#687,.T.);
#1003=ORIENTED_EDGE('',*,*,#701,.T.);
#1004=ORIENTED_EDGE('',*,*,#682,.F.);
#1005=ORIENTED_EDGE('',*,*,#670,.T.);
#1006=ORIENTED_EDGE('',*,*,#689,.T.);
#1007=ORIENTED_EDGE('',*,*,#608,.T.);
#1008=ORIENTED_EDGE('',*,*,#683,.F.);
#1009=ORIENTED_EDGE('',*,*,#701,.F.);
#1010=PLANE('',#1169);
#1011=PLANE('',#1170);
#1012=PLANE('',#1171);
#1013=PLANE('',#1174);
#1014=PLANE('',#1175);
#1015=PLANE('',#1176);
#1016=PLANE('',#1177);
#1017=PLANE('',#1178);
#1018=PLANE('',#1179);
#1019=PLANE('',#1180);
#1020=PLANE('',#1181);
#1021=PLANE('',#1182);
#1022=PLANE('',#1183);
#1023=PLANE('',#1184);
#1024=PLANE('',#1185);
#1025=PLANE('',#1186);
#1026=PLANE('',#1187);
#1027=PLANE('',#1188);
#1028=PLANE('',#1189);
#1029=PLANE('',#1190);
#1030=PLANE('',#1191);
#1031=PLANE('',#1192);
#1032=PLANE('',#1193);
#1033=PLANE('',#1194);
#1034=PLANE('',#1195);
#1035=PLANE('',#1196);
#1036=PLANE('',#1197);
#1037=PLANE('',#1198);
#1038=PLANE('',#1199);
#1039=PLANE('',#1200);
#1040=PLANE('',#1203);
#1041=PLANE('',#1206);
#1042=PLANE('',#1207);
#1043=PLANE('',#1208);
#1044=PLANE('',#1209);
#1045=PLANE('',#1210);
#1046=PLANE('',#1211);
#1047=PLANE('',#1212);
#1048=PLANE('',#1213);
#1049=PLANE('',#1214);
#1050=PLANE('',#1215);
#1051=PLANE('',#1216);
#1052=PLANE('',#1217);
#1053=PLANE('',#1218);
#1054=PLANE('',#1219);
#1055=PLANE('',#1220);
#1056=PLANE('',#1221);
#1057=PLANE('',#1222);
#1058=PLANE('',#1223);
#1059=PLANE('',#1224);
#1060=PLANE('',#1225);
#1061=PLANE('',#1226);
#1062=PLANE('',#1227);
#1063=PLANE('',#1228);
#1064=PLANE('',#1229);
#1065=PLANE('',#1230);
#1066=PLANE('',#1231);
#1067=PLANE('',#1232);
#1068=STYLED_ITEM('',(#1848),#1089);
#1069=STYLED_ITEM('',(#1848),#1090);
#1070=STYLED_ITEM('',(#1848),#1091);
#1071=STYLED_ITEM('',(#1848),#1092);
#1072=STYLED_ITEM('',(#1848),#1093);
#1073=STYLED_ITEM('',(#1848),#1094);
#1074=STYLED_ITEM('',(#1848),#1095);
#1075=STYLED_ITEM('',(#1848),#1096);
#1076=STYLED_ITEM('',(#1848),#1097);
#1077=STYLED_ITEM('',(#1848),#1098);
#1078=STYLED_ITEM('',(#1848),#1099);
#1079=STYLED_ITEM('',(#1848),#1100);
#1080=STYLED_ITEM('',(#1848),#1101);
#1081=STYLED_ITEM('',(#1848),#1102);
#1082=STYLED_ITEM('',(#1848),#1103);
#1083=STYLED_ITEM('',(#1848),#1104);
#1084=STYLED_ITEM('',(#1848),#1124);
#1085=STYLED_ITEM('',(#1848),#1125);
#1086=STYLED_ITEM('',(#1848),#1138);
#1087=STYLED_ITEM('',(#1848),#1139);
#1088=STYLED_ITEM('',(#1847),#13);
#1089=ADVANCED_FACE('',(#24),#1010,.T.);
#1090=ADVANCED_FACE('',(#25),#1011,.T.);
#1091=ADVANCED_FACE('',(#26,#16),#1012,.F.);
#1092=ADVANCED_FACE('',(#27),#1013,.T.);
#1093=ADVANCED_FACE('',(#28),#1014,.T.);
#1094=ADVANCED_FACE('',(#29),#1015,.T.);
#1095=ADVANCED_FACE('',(#30),#1016,.T.);
#1096=ADVANCED_FACE('',(#31),#1017,.T.);
#1097=ADVANCED_FACE('',(#32),#1018,.T.);
#1098=ADVANCED_FACE('',(#33),#1019,.T.);
#1099=ADVANCED_FACE('',(#34),#1020,.T.);
#1100=ADVANCED_FACE('',(#35),#1021,.T.);
#1101=ADVANCED_FACE('',(#36),#1022,.T.);
#1102=ADVANCED_FACE('',(#37),#1023,.T.);
#1103=ADVANCED_FACE('',(#38),#1024,.T.);
#1104=ADVANCED_FACE('',(#39),#1025,.T.);
#1105=ADVANCED_FACE('',(#40),#1026,.T.);
#1106=ADVANCED_FACE('',(#41),#1027,.T.);
#1107=ADVANCED_FACE('',(#42),#1028,.T.);
#1108=ADVANCED_FACE('',(#43),#1029,.T.);
#1109=ADVANCED_FACE('',(#44),#1030,.T.);
#1110=ADVANCED_FACE('',(#45),#1031,.T.);
#1111=ADVANCED_FACE('',(#46),#1032,.T.);
#1112=ADVANCED_FACE('',(#47),#1033,.T.);
#1113=ADVANCED_FACE('',(#48),#1034,.T.);
#1114=ADVANCED_FACE('',(#49),#1035,.T.);
#1115=ADVANCED_FACE('',(#50),#1036,.T.);
#1116=ADVANCED_FACE('',(#51),#1037,.T.);
#1117=ADVANCED_FACE('',(#52),#1038,.T.);
#1118=ADVANCED_FACE('',(#53),#1039,.T.);
#1119=ADVANCED_FACE('',(#54),#14,.T.);
#1120=ADVANCED_FACE('',(#55),#1040,.T.);
#1121=ADVANCED_FACE('',(#56),#15,.T.);
#1122=ADVANCED_FACE('',(#57),#1041,.T.);
#1123=ADVANCED_FACE('',(#58),#1042,.T.);
#1124=ADVANCED_FACE('',(#59),#1043,.F.);
#1125=ADVANCED_FACE('',(#60),#1044,.F.);
#1126=ADVANCED_FACE('',(#61),#1045,.T.);
#1127=ADVANCED_FACE('',(#62),#1046,.T.);
#1128=ADVANCED_FACE('',(#63),#1047,.T.);
#1129=ADVANCED_FACE('',(#64),#1048,.T.);
#1130=ADVANCED_FACE('',(#65),#1049,.T.);
#1131=ADVANCED_FACE('',(#66),#1050,.T.);
#1132=ADVANCED_FACE('',(#67),#1051,.T.);
#1133=ADVANCED_FACE('',(#68),#1052,.T.);
#1134=ADVANCED_FACE('',(#69),#1053,.T.);
#1135=ADVANCED_FACE('',(#70),#1054,.T.);
#1136=ADVANCED_FACE('',(#71),#1055,.T.);
#1137=ADVANCED_FACE('',(#72),#1056,.T.);
#1138=ADVANCED_FACE('',(#73,#17,#18,#19),#1057,.T.);
#1139=ADVANCED_FACE('',(#74),#1058,.T.);
#1140=ADVANCED_FACE('',(#75),#1059,.T.);
#1141=ADVANCED_FACE('',(#76),#1060,.T.);
#1142=ADVANCED_FACE('',(#77),#1061,.T.);
#1143=ADVANCED_FACE('',(#78),#1062,.T.);
#1144=ADVANCED_FACE('',(#79),#1063,.T.);
#1145=ADVANCED_FACE('',(#80),#1064,.T.);
#1146=ADVANCED_FACE('',(#81),#1065,.T.);
#1147=ADVANCED_FACE('',(#82),#1066,.T.);
#1148=ADVANCED_FACE('',(#83),#1067,.T.);
#1149=CLOSED_SHELL('',(#1089,#1090,#1091,#1092,#1093,#1094,#1095,#1096,
#1097,#1098,#1099,#1100,#1101,#1102,#1103,#1104,#1105,#1106,#1107,#1108,
#1109,#1110,#1111,#1112,#1113,#1114,#1115,#1116,#1117,#1118,#1119,#1120,
#1121,#1122,#1123,#1124,#1125,#1126,#1127,#1128,#1129,#1130,#1131,#1132,
#1133,#1134,#1135,#1136,#1137,#1138,#1139,#1140,#1141,#1142,#1143,#1144,
#1145,#1146,#1147,#1148));
#1150=DERIVED_UNIT_ELEMENT(#1152,1.);
#1151=DERIVED_UNIT_ELEMENT(#1833,3.);
#1152=(
MASS_UNIT()
NAMED_UNIT(*)
SI_UNIT($,.GRAM.)
);
#1153=DERIVED_UNIT((#1150,#1151));
#1154=MEASURE_REPRESENTATION_ITEM('density measure',
POSITIVE_RATIO_MEASURE(1.),#1153);
#1155=PROPERTY_DEFINITION_REPRESENTATION(#1160,#1157);
#1156=PROPERTY_DEFINITION_REPRESENTATION(#1161,#1158);
#1157=REPRESENTATION('material name',(#1159),#1830);
#1158=REPRESENTATION('density',(#1154),#1830);
#1159=DESCRIPTIVE_REPRESENTATION_ITEM('Generic','Generic');
#1160=PROPERTY_DEFINITION('material property','material name',#1840);
#1161=PROPERTY_DEFINITION('material property','density of part',#1840);
#1162=DATE_TIME_ROLE('creation_date');
#1163=APPLIED_DATE_AND_TIME_ASSIGNMENT(#1164,#1162,(#1840));
#1164=DATE_AND_TIME(#1165,#1166);
#1165=CALENDAR_DATE(2020,20,8);
#1166=LOCAL_TIME(0,0,0.,#1167);
#1167=COORDINATED_UNIVERSAL_TIME_OFFSET(0,0,.BEHIND.);
#1168=AXIS2_PLACEMENT_3D('placement',#1513,#1233,#1234);
#1169=AXIS2_PLACEMENT_3D('',#1514,#1235,#1236);
#1170=AXIS2_PLACEMENT_3D('',#1527,#1243,#1244);
#1171=AXIS2_PLACEMENT_3D('',#1533,#1248,#1249);
#1172=AXIS2_PLACEMENT_3D('',#1543,#1254,#1255);
#1173=AXIS2_PLACEMENT_3D('',#1547,#1257,#1258);
#1174=AXIS2_PLACEMENT_3D('',#1549,#1260,#1261);
#1175=AXIS2_PLACEMENT_3D('',#1557,#1266,#1267);
#1176=AXIS2_PLACEMENT_3D('',#1563,#1271,#1272);
#1177=AXIS2_PLACEMENT_3D('',#1585,#1284,#1285);
#1178=AXIS2_PLACEMENT_3D('',#1589,#1288,#1289);
#1179=AXIS2_PLACEMENT_3D('',#1593,#1292,#1293);
#1180=AXIS2_PLACEMENT_3D('',#1596,#1296,#1297);
#1181=AXIS2_PLACEMENT_3D('',#1598,#1299,#1300);
#1182=AXIS2_PLACEMENT_3D('',#1601,#1303,#1304);
#1183=AXIS2_PLACEMENT_3D('',#1605,#1307,#1308);
#1184=AXIS2_PLACEMENT_3D('',#1609,#1311,#1312);
#1185=AXIS2_PLACEMENT_3D('',#1612,#1315,#1316);
#1186=AXIS2_PLACEMENT_3D('',#1614,#1318,#1319);
#1187=AXIS2_PLACEMENT_3D('',#1615,#1320,#1321);
#1188=AXIS2_PLACEMENT_3D('',#1624,#1326,#1327);
#1189=AXIS2_PLACEMENT_3D('',#1630,#1331,#1332);
#1190=AXIS2_PLACEMENT_3D('',#1646,#1341,#1342);
#1191=AXIS2_PLACEMENT_3D('',#1655,#1347,#1348);
#1192=AXIS2_PLACEMENT_3D('',#1661,#1352,#1353);
#1193=AXIS2_PLACEMENT_3D('',#1677,#1362,#1363);
#1194=AXIS2_PLACEMENT_3D('',#1681,#1366,#1367);
#1195=AXIS2_PLACEMENT_3D('',#1685,#1370,#1371);
#1196=AXIS2_PLACEMENT_3D('',#1694,#1376,#1377);
#1197=AXIS2_PLACEMENT_3D('',#1700,#1381,#1382);
#1198=AXIS2_PLACEMENT_3D('',#1716,#1391,#1392);
#1199=AXIS2_PLACEMENT_3D('',#1720,#1395,#1396);
#1200=AXIS2_PLACEMENT_3D('',#1726,#1400,#1401);
#1201=AXIS2_PLACEMENT_3D('',#1730,#1404,#1405);
#1202=AXIS2_PLACEMENT_3D('',#1732,#1406,#1407);
#1203=AXIS2_PLACEMENT_3D('',#1734,#1409,#1410);
#1204=AXIS2_PLACEMENT_3D('',#1738,#1413,#1414);
#1205=AXIS2_PLACEMENT_3D('',#1740,#1415,#1416);
#1206=AXIS2_PLACEMENT_3D('',#1742,#1418,#1419);
#1207=AXIS2_PLACEMENT_3D('',#1744,#1421,#1422);
#1208=AXIS2_PLACEMENT_3D('',#1745,#1423,#1424);
#1209=AXIS2_PLACEMENT_3D('',#1746,#1425,#1426);
#1210=AXIS2_PLACEMENT_3D('',#1747,#1427,#1428);
#1211=AXIS2_PLACEMENT_3D('',#1751,#1431,#1432);
#1212=AXIS2_PLACEMENT_3D('',#1755,#1435,#1436);
#1213=AXIS2_PLACEMENT_3D('',#1759,#1439,#1440);
#1214=AXIS2_PLACEMENT_3D('',#1763,#1443,#1444);
#1215=AXIS2_PLACEMENT_3D('',#1767,#1447,#1448);
#1216=AXIS2_PLACEMENT_3D('',#1771,#1451,#1452);
#1217=AXIS2_PLACEMENT_3D('',#1775,#1455,#1456);
#1218=AXIS2_PLACEMENT_3D('',#1779,#1459,#1460);
#1219=AXIS2_PLACEMENT_3D('',#1783,#1463,#1464);
#1220=AXIS2_PLACEMENT_3D('',#1787,#1467,#1468);
#1221=AXIS2_PLACEMENT_3D('',#1791,#1471,#1472);
#1222=AXIS2_PLACEMENT_3D('',#1795,#1475,#1476);
#1223=AXIS2_PLACEMENT_3D('',#1812,#1487,#1488);
#1224=AXIS2_PLACEMENT_3D('',#1813,#1489,#1490);
#1225=AXIS2_PLACEMENT_3D('',#1815,#1492,#1493);
#1226=AXIS2_PLACEMENT_3D('',#1817,#1495,#1496);
#1227=AXIS2_PLACEMENT_3D('',#1819,#1498,#1499);
#1228=AXIS2_PLACEMENT_3D('',#1821,#1501,#1502);
#1229=AXIS2_PLACEMENT_3D('',#1823,#1504,#1505);
#1230=AXIS2_PLACEMENT_3D('',#1824,#1506,#1507);
#1231=AXIS2_PLACEMENT_3D('',#1825,#1508,#1509);
#1232=AXIS2_PLACEMENT_3D('',#1827,#1511,#1512);
#1233=DIRECTION('axis',(0.,0.,1.));
#1234=DIRECTION('refdir',(1.,0.,0.));
#1235=DIRECTION('center_axis',(0.989949493661167,0.,-0.14142135623731));
#1236=DIRECTION('ref_axis',(-0.14142135623731,0.,-0.989949493661167));
#1237=DIRECTION('',(0.140028008402801,0.1400280084028,0.980196058819607));
#1238=DIRECTION('',(0.,1.,0.));
#1239=DIRECTION('',(0.,-1.,0.));
#1240=DIRECTION('',(0.,1.,0.));
#1241=DIRECTION('',(-0.140028008402801,0.140028008402801,-0.980196058819607));
#1242=DIRECTION('',(0.,1.,0.));
#1243=DIRECTION('center_axis',(0.,0.989949493661167,-0.141421356237309));
#1244=DIRECTION('ref_axis',(0.,0.141421356237309,0.989949493661167));
#1245=DIRECTION('',(-1.,0.,0.));
#1246=DIRECTION('',(-0.140028008402801,0.1400280084028,0.980196058819607));
#1247=DIRECTION('',(-1.,0.,0.));
#1248=DIRECTION('center_axis',(0.,0.,1.));
#1249=DIRECTION('ref_axis',(1.,0.,0.));
#1250=DIRECTION('',(1.,1.2498628771013E-16,0.));
#1251=DIRECTION('',(2.11471052309554E-16,-1.,0.));
#1252=DIRECTION('',(1.,-1.2335811384724E-16,0.));
#1253=DIRECTION('',(2.08166817117217E-16,1.,0.));
#1254=DIRECTION('center_axis',(0.,0.,1.));
#1255=DIRECTION('ref_axis',(7.40148683083437E-16,1.,0.));
#1256=DIRECTION('',(-1.,0.,0.));
#1257=DIRECTION('center_axis',(0.,0.,1.));
#1258=DIRECTION('ref_axis',(-1.,1.48029736616688E-15,0.));
#1259=DIRECTION('',(-6.93889390390723E-17,-1.,0.));
#1260=DIRECTION('center_axis',(-0.989949493661167,-2.09345661157837E-16,
-0.14142135623731));
#1261=DIRECTION('ref_axis',(-0.14142135623731,0.,0.989949493661167));
#1262=DIRECTION('',(-0.140028008402801,-0.140028008402801,0.980196058819607));
#1263=DIRECTION('',(2.11471052309554E-16,-1.,0.));
#1264=DIRECTION('',(-2.11471052309554E-16,1.,0.));
#1265=DIRECTION('',(2.11471052309554E-16,-1.,0.));
#1266=DIRECTION('center_axis',(0.9953500135553,0.,0.0963241948601904));
#1267=DIRECTION('ref_axis',(0.0963241948601904,0.,-0.9953500135553));
#1268=DIRECTION('',(0.095880415815089,-0.0958804158150888,-0.990764296755919));
#1269=DIRECTION('',(-0.095880415815089,-0.095880415815089,0.990764296755919));
#1270=DIRECTION('',(0.,-1.,0.));
#1271=DIRECTION('center_axis',(0.,0.,1.));
#1272=DIRECTION('ref_axis',(1.,0.,0.));
#1273=DIRECTION('',(1.,0.,0.));
#1274=DIRECTION('',(2.22044604925031E-16,-1.,0.));
#1275=DIRECTION('',(-1.,0.,0.));
#1276=DIRECTION('',(0.,-1.,0.));
#1277=DIRECTION('',(1.,0.,0.));
#1278=DIRECTION('',(-2.11471052309554E-16,1.,0.));
#1279=DIRECTION('',(-1.,0.,0.));
#1280=DIRECTION('',(0.,1.,0.));
#1281=DIRECTION('',(1.,0.,0.));
#1282=DIRECTION('',(-2.11471052309554E-16,1.,0.));
#1283=DIRECTION('',(1.,1.2498628771013E-16,0.));
#1284=DIRECTION('center_axis',(0.,0.9953500135553,0.0963241948601904));
#1285=DIRECTION('ref_axis',(0.,-0.0963241948601904,0.9953500135553));
#1286=DIRECTION('',(-1.,0.,0.));
#1287=DIRECTION('',(0.095880415815089,0.095880415815089,-0.990764296755919));
#1288=DIRECTION('center_axis',(0.9953500135553,2.21012100522011E-16,0.0963241948601904));
#1289=DIRECTION('ref_axis',(0.0963241948601904,0.,-0.9953500135553));
#1290=DIRECTION('',(-2.22044604925031E-16,1.,0.));
#1291=DIRECTION('',(0.095880415815089,-0.0958804158150883,-0.990764296755919));
#1292=DIRECTION('center_axis',(0.,-0.9953500135553,0.0963241948601897));
#1293=DIRECTION('ref_axis',(0.,-0.0963241948601897,-0.9953500135553));
#1294=DIRECTION('',(-0.095880415815089,0.0958804158150883,0.990764296755919));
#1295=DIRECTION('',(1.,0.,0.));
#1296=DIRECTION('center_axis',(0.9953500135553,0.,0.0963241948601904));
#1297=DIRECTION('ref_axis',(0.0963241948601904,0.,-0.9953500135553));
#1298=DIRECTION('',(-0.0945849991679148,-0.18916999833583,0.977378324735119));
#1299=DIRECTION('center_axis',(-0.9953500135553,-2.10487714782868E-16,0.0963241948601904));
#1300=DIRECTION('ref_axis',(0.0963241948601904,0.,0.9953500135553));
#1301=DIRECTION('',(0.095880415815089,0.0958804158150888,0.990764296755919));
#1302=DIRECTION('',(-0.095880415815089,0.0958804158150897,-0.990764296755919));
#1303=DIRECTION('center_axis',(0.,0.9953500135553,0.0963241948601911));
#1304=DIRECTION('ref_axis',(0.,-0.0963241948601911,0.9953500135553));
#1305=DIRECTION('',(0.095880415815089,-0.0958804158150897,0.990764296755919));
#1306=DIRECTION('',(-1.,0.,0.));
#1307=DIRECTION('center_axis',(-0.9953500135553,0.,0.0963241948601904));
#1308=DIRECTION('ref_axis',(0.0963241948601904,0.,0.9953500135553));
#1309=DIRECTION('',(0.095880415815089,0.0958804158150883,0.990764296755919));
#1310=DIRECTION('',(0.,-1.,0.));
#1311=DIRECTION('center_axis',(0.,-0.9953500135553,0.0963241948601897));
#1312=DIRECTION('ref_axis',(0.,-0.0963241948601897,-0.9953500135553));
#1313=DIRECTION('',(-0.095880415815089,-0.0958804158150883,-0.990764296755919));
#1314=DIRECTION('',(1.,0.,0.));
#1315=DIRECTION('center_axis',(-0.9953500135553,-2.10487714782868E-16,0.0963241948601904));
#1316=DIRECTION('ref_axis',(0.0963241948601904,0.,0.9953500135553));
#1317=DIRECTION('',(-0.0945849991679149,0.18916999833583,-0.977378324735119));
#1318=DIRECTION('center_axis',(0.,0.981779850590281,0.190021906565861));
#1319=DIRECTION('ref_axis',(0.,-0.190021906565861,0.981779850590281));
#1320=DIRECTION('center_axis',(-0.966234939601246,-0.257662650560333,0.));
#1321=DIRECTION('ref_axis',(0.,0.,1.));
#1322=DIRECTION('',(0.257662650560333,-0.966234939601246,7.15157518095068E-17));
#1323=DIRECTION('',(0.,0.,1.));
#1324=DIRECTION('',(-0.257662650560333,0.966234939601246,0.));
#1325=DIRECTION('',(0.,0.,-1.));
#1326=DIRECTION('center_axis',(1.39650694921403E-16,-1.,0.));
#1327=DIRECTION('ref_axis',(0.,0.,-1.));
#1328=DIRECTION('',(1.,1.26161707343768E-16,2.77555756156289E-16));
#1329=DIRECTION('',(0.,0.,-1.));
#1330=DIRECTION('',(-1.,-1.26161707343768E-16,0.));
#1331=DIRECTION('center_axis',(2.77555756156289E-16,0.,-1.));
#1332=DIRECTION('ref_axis',(1.,1.2498628771013E-16,2.77555756156289E-16));
#1333=DIRECTION('',(1.39650694921403E-16,-1.,0.));
#1334=DIRECTION('',(1.,1.2498628771013E-16,2.77555756156289E-16));
#1335=DIRECTION('',(0.,-1.,0.));
#1336=DIRECTION('',(1.,2.68602344667376E-17,2.77555756156289E-16));
#1337=DIRECTION('',(0.,-1.,0.));
#1338=DIRECTION('',(1.,1.2498628771013E-16,2.77555756156289E-16));
#1339=DIRECTION('',(1.39650694921403E-16,-1.,0.));
#1340=DIRECTION('',(0.257662650560333,0.966234939601246,7.15157518095068E-17));
#1341=DIRECTION('center_axis',(-0.966234939601246,-0.257662650560333,0.));
#1342=DIRECTION('ref_axis',(0.,0.,1.));
#1343=DIRECTION('',(0.257662650560333,-0.966234939601246,4.76771678730045E-17));
#1344=DIRECTION('',(0.,0.,1.));
#1345=DIRECTION('',(-0.257662650560333,0.966234939601246,0.));
#1346=DIRECTION('',(0.,0.,-1.));
#1347=DIRECTION('center_axis',(1.26558442272522E-16,-1.,0.));
#1348=DIRECTION('ref_axis',(0.,0.,-1.));
#1349=DIRECTION('',(1.,1.26161707343768E-16,0.));
#1350=DIRECTION('',(0.,0.,-1.));
#1351=DIRECTION('',(-1.,-1.26161707343768E-16,0.));
#1352=DIRECTION('center_axis',(1.85037170770859E-16,2.33446053865119E-32,
-1.));
#1353=DIRECTION('ref_axis',(1.,1.2498628771013E-16,1.85037170770859E-16));
#1354=DIRECTION('',(1.26558442272522E-16,-1.,0.));
#1355=DIRECTION('',(1.,1.2498628771013E-16,1.85037170770859E-16));
#1356=DIRECTION('',(1.26161707343768E-16,-1.,0.));
#1357=DIRECTION('',(1.,1.79068229778251E-17,1.85037170770859E-16));
#1358=DIRECTION('',(1.26161707343768E-16,-1.,0.));
#1359=DIRECTION('',(1.,1.2498628771013E-16,1.85037170770859E-16));
#1360=DIRECTION('',(1.26558442272522E-16,-1.,0.));
#1361=DIRECTION('',(0.257662650560332,0.966234939601246,4.76771678730045E-17));
#1362=DIRECTION('center_axis',(0.966234939601246,-0.257662650560332,0.));
#1363=DIRECTION('ref_axis',(0.,0.,-1.));
#1364=DIRECTION('',(-0.257662650560332,-0.966234939601246,0.));
#1365=DIRECTION('',(0.,0.,1.));
#1366=DIRECTION('center_axis',(0.966234939601246,-0.257662650560333,0.));
#1367=DIRECTION('ref_axis',(0.,0.,-1.));
#1368=DIRECTION('',(-0.257662650560333,-0.966234939601246,0.));
#1369=DIRECTION('',(0.,0.,1.));
#1370=DIRECTION('center_axis',(-0.966234939601246,-0.257662650560333,0.));
#1371=DIRECTION('ref_axis',(0.,0.,1.));
#1372=DIRECTION('',(0.257662650560333,-0.966234939601246,3.57578759047534E-17));
#1373=DIRECTION('',(0.,0.,1.));
#1374=DIRECTION('',(-0.257662650560333,0.966234939601246,0.));
#1375=DIRECTION('',(0.,0.,-1.));
#1376=DIRECTION('center_axis',(1.39650694921403E-16,-1.,0.));
#1377=DIRECTION('ref_axis',(0.,0.,-1.));
#1378=DIRECTION('',(1.,1.26161707343768E-16,0.));
#1379=DIRECTION('',(0.,0.,-1.));
#1380=DIRECTION('',(-1.,-1.26161707343768E-16,0.));
#1381=DIRECTION('center_axis',(1.38777878078145E-16,1.7508454039884E-32,
-1.));
#1382=DIRECTION('ref_axis',(1.,1.2498628771013E-16,1.38777878078145E-16));
#1383=DIRECTION('',(1.39650694921403E-16,-1.,0.));
#1384=DIRECTION('',(1.,1.2498628771013E-16,1.38777878078145E-16));
#1385=DIRECTION('',(1.26161707343768E-16,-1.,0.));
#1386=DIRECTION('',(1.,1.34301172333688E-17,1.38777878078145E-16));
#1387=DIRECTION('',(1.26161707343768E-16,-1.,0.));
#1388=DIRECTION('',(1.,1.2498628771013E-16,1.38777878078145E-16));
#1389=DIRECTION('',(1.39650694921403E-16,-1.,0.));
#1390=DIRECTION('',(0.257662650560333,0.966234939601246,3.57578759047534E-17));
#1391=DIRECTION('center_axis',(0.966234939601246,-0.257662650560333,0.));
#1392=DIRECTION('ref_axis',(0.,0.,-1.));
#1393=DIRECTION('',(-0.257662650560333,-0.966234939601246,0.));
#1394=DIRECTION('',(0.,0.,1.));
#1395=DIRECTION('center_axis',(-1.2335811384724E-16,-1.,0.));
#1396=DIRECTION('ref_axis',(-1.,1.2335811384724E-16,0.));
#1397=DIRECTION('',(0.,0.,-1.));
#1398=DIRECTION('',(-1.,1.2335811384724E-16,0.));
#1399=DIRECTION('',(0.,0.,-1.));
#1400=DIRECTION('center_axis',(1.,-2.08166817117217E-16,0.));
#1401=DIRECTION('ref_axis',(-2.08166817117217E-16,-1.,0.));
#1402=DIRECTION('',(-2.08166817117217E-16,-1.,0.));
#1403=DIRECTION('',(0.,0.,-1.));
#1404=DIRECTION('center_axis',(0.,0.,-1.));
#1405=DIRECTION('ref_axis',(7.40148683083437E-16,1.,0.));
#1406=DIRECTION('center_axis',(0.,0.,-1.));
#1407=DIRECTION('ref_axis',(7.40148683083437E-16,1.,0.));
#1408=DIRECTION('',(0.,0.,-1.));
#1409=DIRECTION('center_axis',(0.,1.,0.));
#1410=DIRECTION('ref_axis',(1.,0.,0.));
#1411=DIRECTION('',(1.,0.,0.));
#1412=DIRECTION('',(0.,0.,-1.));
#1413=DIRECTION('center_axis',(0.,0.,-1.));
#1414=DIRECTION('ref_axis',(-1.,1.48029736616688E-15,0.));
#1415=DIRECTION('center_axis',(0.,0.,-1.));
#1416=DIRECTION('ref_axis',(-1.,1.48029736616688E-15,0.));
#1417=DIRECTION('',(0.,0.,-1.));
#1418=DIRECTION('center_axis',(-1.,6.93889390390723E-17,0.));
#1419=DIRECTION('ref_axis',(6.93889390390723E-17,1.,0.));
#1420=DIRECTION('',(6.93889390390723E-17,1.,0.));
#1421=DIRECTION('center_axis',(0.,0.,-1.));
#1422=DIRECTION('ref_axis',(-1.,0.,0.));
#1423=DIRECTION('center_axis',(0.,0.,-1.));
#1424=DIRECTION('ref_axis',(-1.,0.,0.));
#1425=DIRECTION('center_axis',(0.,0.,-1.));
#1426=DIRECTION('ref_axis',(-1.,0.,0.));
#1427=DIRECTION('center_axis',(-1.,-1.39650694921403E-16,0.));
#1428=DIRECTION('ref_axis',(0.,0.,-1.));
#1429=DIRECTION('',(1.39650694921403E-16,-1.,0.));
#1430=DIRECTION('',(0.,0.,1.));
#1431=DIRECTION('center_axis',(1.,1.39650694921403E-16,0.));
#1432=DIRECTION('ref_axis',(0.,0.,1.));
#1433=DIRECTION('',(0.,0.,-1.));
#1434=DIRECTION('',(1.39650694921403E-16,-1.,0.));
#1435=DIRECTION('center_axis',(-1.,-1.26558442272522E-16,0.));
#1436=DIRECTION('ref_axis',(0.,0.,-1.));
#1437=DIRECTION('',(1.26558442272522E-16,-1.,0.));
#1438=DIRECTION('',(0.,0.,1.));
#1439=DIRECTION('center_axis',(1.,1.26558442272522E-16,0.));
#1440=DIRECTION('ref_axis',(0.,0.,1.));
#1441=DIRECTION('',(0.,0.,-1.));
#1442=DIRECTION('',(1.26558442272522E-16,-1.,0.));
#1443=DIRECTION('center_axis',(-1.,-1.39650694921403E-16,0.));
#1444=DIRECTION('ref_axis',(0.,0.,-1.));
#1445=DIRECTION('',(1.39650694921403E-16,-1.,0.));
#1446=DIRECTION('',(0.,0.,1.));
#1447=DIRECTION('center_axis',(1.,1.39650694921403E-16,0.));
#1448=DIRECTION('ref_axis',(0.,0.,1.));
#1449=DIRECTION('',(0.,0.,-1.));
#1450=DIRECTION('',(1.39650694921403E-16,-1.,0.));
#1451=DIRECTION('center_axis',(1.26161707343768E-16,-1.,0.));
#1452=DIRECTION('ref_axis',(0.,0.,-1.));
#1453=DIRECTION('',(-1.,-1.2498628771013E-16,0.));
#1454=DIRECTION('',(0.,0.,-1.));
#1455=DIRECTION('center_axis',(1.26161707343768E-16,-1.,0.));
#1456=DIRECTION('ref_axis',(0.,0.,-1.));
#1457=DIRECTION('',(0.,0.,1.));
#1458=DIRECTION('',(-1.,-1.2498628771013E-16,0.));
#1459=DIRECTION('center_axis',(1.26161707343768E-16,-1.,0.));
#1460=DIRECTION('ref_axis',(0.,0.,-1.));
#1461=DIRECTION('',(-1.,-1.2498628771013E-16,0.));
#1462=DIRECTION('',(0.,0.,-1.));
#1463=DIRECTION('center_axis',(1.26161707343768E-16,-1.,0.));
#1464=DIRECTION('ref_axis',(0.,0.,-1.));
#1465=DIRECTION('',(0.,0.,1.));
#1466=DIRECTION('',(-1.,-1.2498628771013E-16,0.));
#1467=DIRECTION('center_axis',(0.,-1.,0.));
#1468=DIRECTION('ref_axis',(0.,0.,-1.));
#1469=DIRECTION('',(-1.,-1.2498628771013E-16,0.));
#1470=DIRECTION('',(0.,0.,-1.));
#1471=DIRECTION('center_axis',(0.,-1.,0.));
#1472=DIRECTION('ref_axis',(0.,0.,-1.));
#1473=DIRECTION('',(0.,0.,1.));
#1474=DIRECTION('',(-1.,-1.2498628771013E-16,0.));
#1475=DIRECTION('center_axis',(0.,-0.9953500135553,0.0963241948601902));
#1476=DIRECTION('ref_axis',(0.,0.0963241948601902,0.9953500135553));
#1477=DIRECTION('',(-1.,0.,0.));
#1478=DIRECTION('',(-1.,0.,0.));
#1479=DIRECTION('',(0.,0.0963241948601902,0.9953500135553));
#1480=DIRECTION('',(0.,-0.0963241948601902,-0.9953500135553));
#1481=DIRECTION('',(1.21524248820754E-17,-0.0963241948601902,-0.9953500135553));
#1482=DIRECTION('',(-1.,0.,0.));
#1483=DIRECTION('',(-1.21524248820754E-17,0.0963241948601902,0.9953500135553));
#1484=DIRECTION('',(1.21524248820754E-17,-0.0963241948601902,-0.9953500135553));
#1485=DIRECTION('',(-1.,0.,0.));
#1486=DIRECTION('',(-1.21524248820754E-17,0.0963241948601902,0.9953500135553));
#1487=DIRECTION('center_axis',(0.,-0.989949493661167,-0.141421356237309));
#1488=DIRECTION('ref_axis',(0.,-0.141421356237309,0.989949493661167));
#1489=DIRECTION('center_axis',(1.,1.26161707343768E-16,0.));
#1490=DIRECTION('ref_axis',(0.,0.,1.));
#1491=DIRECTION('',(1.26161707343768E-16,-1.,0.));
#1492=DIRECTION('center_axis',(0.,0.,1.));
#1493=DIRECTION('ref_axis',(-1.,-1.2498628771013E-16,0.));
#1494=DIRECTION('',(1.26161707343768E-16,-1.,0.));
#1495=DIRECTION('center_axis',(1.,1.26161707343768E-16,0.));
#1496=DIRECTION('ref_axis',(0.,0.,1.));
#1497=DIRECTION('',(1.26161707343768E-16,-1.,0.));
#1498=DIRECTION('center_axis',(0.,0.,1.));
#1499=DIRECTION('ref_axis',(-1.,-1.2498628771013E-16,0.));
#1500=DIRECTION('',(1.26161707343768E-16,-1.,0.));
#1501=DIRECTION('center_axis',(1.,0.,0.));
#1502=DIRECTION('ref_axis',(0.,0.,1.));
#1503=DIRECTION('',(0.,-1.,0.));
#1504=DIRECTION('center_axis',(-1.,-1.26161707343768E-16,0.));
#1505=DIRECTION('ref_axis',(0.,0.,-1.));
#1506=DIRECTION('center_axis',(-1.,-1.26161707343768E-16,0.));
#1507=DIRECTION('ref_axis',(0.,0.,-1.));
#1508=DIRECTION('center_axis',(0.,0.,1.));
#1509=DIRECTION('ref_axis',(-1.,-1.2498628771013E-16,0.));
#1510=DIRECTION('',(0.,-1.,0.));
#1511=DIRECTION('center_axis',(-1.,0.,0.));
#1512=DIRECTION('ref_axis',(0.,0.,-1.));
#1513=CARTESIAN_POINT('',(0.,0.,0.));
#1514=CARTESIAN_POINT('Origin',(7.9,5.55,1.05));
#1515=CARTESIAN_POINT('',(7.75,21.,0.));
#1516=CARTESIAN_POINT('',(8.05,21.3,2.1));
#1517=CARTESIAN_POINT('',(7.70906862745098,20.959068627451,-0.286519607843131));
#1518=CARTESIAN_POINT('',(8.05,17.9,2.1));
#1519=CARTESIAN_POINT('',(8.05,5.55,2.1));
#1520=CARTESIAN_POINT('',(8.05,12.9,2.1));
#1521=CARTESIAN_POINT('',(8.05,7.85,2.1));
#1522=CARTESIAN_POINT('',(8.05,-5.89805981832114E-16,2.1));
#1523=CARTESIAN_POINT('',(8.05,5.55,2.1));
#1524=CARTESIAN_POINT('',(7.75,0.300000000000001,0.));
#1525=CARTESIAN_POINT('',(7.775,0.274999999999999,0.175));
#1526=CARTESIAN_POINT('',(7.75,5.55,0.));
#1527=CARTESIAN_POINT('Origin',(4.025,21.15,1.05));
#1528=CARTESIAN_POINT('',(-7.75000000000001,21.,0.));
#1529=CARTESIAN_POINT('',(4.025,21.,0.));
#1530=CARTESIAN_POINT('',(-8.05000000000001,21.3,2.1));
#1531=CARTESIAN_POINT('',(-7.73308823529412,20.9830882352941,-0.118382352941176));
#1532=CARTESIAN_POINT('',(4.025,21.3,2.1));
#1533=CARTESIAN_POINT('Origin',(-2.22044604925031E-15,10.8,0.));
#1534=CARTESIAN_POINT('',(-7.75,0.299999999999999,0.));
#1535=CARTESIAN_POINT('',(-8.05,0.299999999999999,0.));
#1536=CARTESIAN_POINT('',(-7.75,16.05,0.));
#1537=CARTESIAN_POINT('',(-6.75000000000001,3.2,0.));
#1538=CARTESIAN_POINT('',(6.75,3.2,0.));
#1539=CARTESIAN_POINT('',(3.375,3.2,0.));
#1540=CARTESIAN_POINT('',(6.75,17.7,0.));
#1541=CARTESIAN_POINT('',(6.75,14.25,0.));
#1542=CARTESIAN_POINT('',(5.25,19.2,0.));
#1543=CARTESIAN_POINT('Origin',(5.25,17.7,0.));
#1544=CARTESIAN_POINT('',(-5.25,19.2,0.));
#1545=CARTESIAN_POINT('',(-2.625,19.2,0.));
#1546=CARTESIAN_POINT('',(-6.75,17.7,0.));
#1547=CARTESIAN_POINT('Origin',(-5.25,17.7,0.));
#1548=CARTESIAN_POINT('',(-6.75000000000001,7.,0.));
#1549=CARTESIAN_POINT('Origin',(-7.9,16.05,1.05));
#1550=CARTESIAN_POINT('',(-8.05,-5.89805981832114E-16,2.1));
#1551=CARTESIAN_POINT('',(-7.51421568627451,0.535784313725489,-1.65049019607843));
#1552=CARTESIAN_POINT('',(-8.05,12.9,2.1));
#1553=CARTESIAN_POINT('',(-8.05,16.05,2.1));
#1554=CARTESIAN_POINT('',(-8.05,17.9,2.1));
#1555=CARTESIAN_POINT('',(-8.05,18.35,2.1));
#1556=CARTESIAN_POINT('',(-8.05,16.05,2.1));
#1557=CARTESIAN_POINT('Origin',(7.9,5.55,3.65));
#1558=CARTESIAN_POINT('',(7.75,0.300000000000001,5.2));
#1559=CARTESIAN_POINT('',(7.95017875383044,0.0998212461695597,3.13148621041879));
#1560=CARTESIAN_POINT('',(7.75,12.6,5.2));
#1561=CARTESIAN_POINT('',(7.84909346271706,12.6990934627171,4.1760342185904));
#1562=CARTESIAN_POINT('',(7.75,5.55,5.2));
#1563=CARTESIAN_POINT('Origin',(-2.22044604925031E-15,10.8,5.2));
#1564=CARTESIAN_POINT('',(5.75,12.6,5.2));
#1565=CARTESIAN_POINT('',(4.025,12.6,5.2));
#1566=CARTESIAN_POINT('',(5.75,18.2,5.2));
#1567=CARTESIAN_POINT('',(5.75,11.85,5.2));
#1568=CARTESIAN_POINT('',(7.75,18.2,5.2));
#1569=CARTESIAN_POINT('',(3.025,18.2,5.2));
#1570=CARTESIAN_POINT('',(7.75,20.7,5.2));
#1571=CARTESIAN_POINT('',(7.75,5.55,5.2));
#1572=CARTESIAN_POINT('',(-7.75,20.7,5.2));
#1573=CARTESIAN_POINT('',(4.025,20.7,5.2));
#1574=CARTESIAN_POINT('',(-7.75,18.2,5.2));
#1575=CARTESIAN_POINT('',(-7.75,16.05,5.2));
#1576=CARTESIAN_POINT('',(-5.75000000000001,18.2,5.2));
#1577=CARTESIAN_POINT('',(-4.025,18.2,5.2));
#1578=CARTESIAN_POINT('',(-5.75000000000001,12.6,5.2));
#1579=CARTESIAN_POINT('',(-5.75000000000001,14.35,5.2));
#1580=CARTESIAN_POINT('',(-7.75,12.6,5.2));
#1581=CARTESIAN_POINT('',(-3.025,12.6,5.2));
#1582=CARTESIAN_POINT('',(-7.75,0.299999999999999,5.2));
#1583=CARTESIAN_POINT('',(-7.75,16.05,5.2));
#1584=CARTESIAN_POINT('',(-8.05,0.299999999999999,5.2));
#1585=CARTESIAN_POINT('Origin',(4.025,12.75,3.65));
#1586=CARTESIAN_POINT('',(6.05,12.9,2.1));
#1587=CARTESIAN_POINT('',(6.05,12.9,2.1));
#1588=CARTESIAN_POINT('',(5.88724463738509,12.7372446373851,3.78180541368744));
#1589=CARTESIAN_POINT('Origin',(5.9,11.85,3.65));
#1590=CARTESIAN_POINT('',(6.05,17.9,2.1));
#1591=CARTESIAN_POINT('',(6.05,17.9,2.1));
#1592=CARTESIAN_POINT('',(5.91528345250255,18.0347165474974,3.49207099080695));
#1593=CARTESIAN_POINT('Origin',(3.025,18.05,3.65));
#1594=CARTESIAN_POINT('',(7.93504851889683,18.0149514811032,3.28783197139939));
#1595=CARTESIAN_POINT('',(8.05,17.9,2.1));
#1596=CARTESIAN_POINT('Origin',(7.9,5.55,3.65));
#1597=CARTESIAN_POINT('',(7.7444458250497,20.6888916500994,5.25739314115308));
#1598=CARTESIAN_POINT('Origin',(-7.9,16.05,3.65));
#1599=CARTESIAN_POINT('',(-7.82791113381001,0.222088866189986,4.39491828396323));
#1600=CARTESIAN_POINT('',(-7.89276046986721,12.7427604698672,3.72480847803881));
#1601=CARTESIAN_POINT('Origin',(-3.025,12.75,3.65));
#1602=CARTESIAN_POINT('',(-6.05000000000001,12.9,2.1));
#1603=CARTESIAN_POINT('',(-5.89413942798775,12.7441394279877,3.71055924412666));
#1604=CARTESIAN_POINT('',(-8.05,12.9,2.1));
#1605=CARTESIAN_POINT('Origin',(-5.90000000000001,14.35,3.65));
#1606=CARTESIAN_POINT('',(-6.05000000000001,17.9,2.1));
#1607=CARTESIAN_POINT('',(-5.9083886618999,18.0416113381001,3.56331716036772));
#1608=CARTESIAN_POINT('',(-6.05000000000001,12.9,2.1));
#1609=CARTESIAN_POINT('Origin',(-4.025,18.05,3.65));
#1610=CARTESIAN_POINT('',(-7.89138151174669,18.0586184882533,3.73905771195097));
#1611=CARTESIAN_POINT('',(-6.05000000000001,17.9,2.1));
#1612=CARTESIAN_POINT('Origin',(-7.9,16.05,3.65));
#1613=CARTESIAN_POINT('',(-7.80237326043738,20.8047465208748,4.65880964214712));
#1614=CARTESIAN_POINT('Origin',(4.025,21.,3.65));
#1615=CARTESIAN_POINT('Origin',(-5.85,-19.25,2.675));
#1616=CARTESIAN_POINT('',(-6.05,-18.5,2.3));
#1617=CARTESIAN_POINT('',(-5.65,-20.,2.3));
#1618=CARTESIAN_POINT('',(-8.30352697095436,-10.0492738589212,2.3));
#1619=CARTESIAN_POINT('',(-5.65,-20.,2.8));
#1620=CARTESIAN_POINT('',(-5.65,-20.,2.675));
#1621=CARTESIAN_POINT('',(-6.05,-18.5,2.8));
#1622=CARTESIAN_POINT('',(-8.23713692946058,-10.2982365145228,2.8));
#1623=CARTESIAN_POINT('',(-6.05,-18.5,2.675));
#1624=CARTESIAN_POINT('Origin',(-5.45,-20.,2.55));
#1625=CARTESIAN_POINT('',(-5.25,-20.,2.3));
#1626=CARTESIAN_POINT('',(-6.45,-20.,2.3));
#1627=CARTESIAN_POINT('',(-5.25,-20.,2.8));
#1628=CARTESIAN_POINT('',(-5.25,-20.,2.425));
#1629=CARTESIAN_POINT('',(-4.45,-20.,2.8));
#1630=CARTESIAN_POINT('Origin',(-6.45,0.299999999999999,2.3));
#1631=CARTESIAN_POINT('',(-6.05,-4.1,2.3));
#1632=CARTESIAN_POINT('',(-6.05,-4.1,2.3));
#1633=CARTESIAN_POINT('',(-6.45,-4.1,2.3));
#1634=CARTESIAN_POINT('',(-6.45,-4.1,2.3));
#1635=CARTESIAN_POINT('',(-6.45,0.0193548387096768,2.3));
#1636=CARTESIAN_POINT('',(-6.45,0.299999999999999,2.3));
#1637=CARTESIAN_POINT('',(-4.45,0.0193548387096768,2.3));
#1638=CARTESIAN_POINT('',(0.8,0.0193548387096769,2.3));
#1639=CARTESIAN_POINT('',(-4.45,-4.1,2.3));
#1640=CARTESIAN_POINT('',(-4.45,0.299999999999999,2.3));
#1641=CARTESIAN_POINT('',(-4.85,-4.1,2.3));
#1642=CARTESIAN_POINT('',(-6.45,-4.1,2.3));
#1643=CARTESIAN_POINT('',(-4.85,-18.5,2.3));
#1644=CARTESIAN_POINT('',(-4.85,-4.1,2.3));
#1645=CARTESIAN_POINT('',(-2.66286307053942,-10.2982365145228,2.3));
#1646=CARTESIAN_POINT('Origin',(-0.4,-19.25,2.675));
#1647=CARTESIAN_POINT('',(-0.6,-18.5,2.3));
#1648=CARTESIAN_POINT('',(-0.2,-20.,2.3));
#1649=CARTESIAN_POINT('',(-2.8701244813278,-9.98703319502075,2.3));
#1650=CARTESIAN_POINT('',(-0.2,-20.,2.8));
#1651=CARTESIAN_POINT('',(-0.2,-20.,2.675));
#1652=CARTESIAN_POINT('',(-0.6,-18.5,2.8));
#1653=CARTESIAN_POINT('',(-2.77053941908714,-10.3604771784232,2.8));
#1654=CARTESIAN_POINT('',(-0.6,-18.5,2.675));
#1655=CARTESIAN_POINT('Origin',(9.0205620750794E-16,-20.,2.55));
#1656=CARTESIAN_POINT('',(0.200000000000001,-20.,2.3));
#1657=CARTESIAN_POINT('',(-0.6,-20.,2.3));
#1658=CARTESIAN_POINT('',(0.200000000000001,-20.,2.8));
#1659=CARTESIAN_POINT('',(0.200000000000001,-20.,2.425));
#1660=CARTESIAN_POINT('',(0.600000000000001,-20.,2.8));
#1661=CARTESIAN_POINT('Origin',(-1.5,0.3,2.3));
#1662=CARTESIAN_POINT('',(-0.600000000000002,-4.1,2.3));
#1663=CARTESIAN_POINT('',(-0.600000000000002,-4.1,2.3));
#1664=CARTESIAN_POINT('',(-1.5,-4.1,2.3));
#1665=CARTESIAN_POINT('',(-1.5,-4.1,2.3));
#1666=CARTESIAN_POINT('',(-1.5,0.0193548387096768,2.3));
#1667=CARTESIAN_POINT('',(-1.5,0.3,2.3));
#1668=CARTESIAN_POINT('',(1.5,0.0193548387096768,2.3));
#1669=CARTESIAN_POINT('',(3.275,0.0193548387096768,2.3));
#1670=CARTESIAN_POINT('',(1.5,-4.1,2.3));
#1671=CARTESIAN_POINT('',(1.5,0.3,2.3));
#1672=CARTESIAN_POINT('',(0.599999999999999,-4.1,2.3));
#1673=CARTESIAN_POINT('',(-1.5,-4.1,2.3));
#1674=CARTESIAN_POINT('',(0.600000000000001,-18.5,2.3));
#1675=CARTESIAN_POINT('',(0.599999999999999,-4.1,2.3));
#1676=CARTESIAN_POINT('',(2.77053941908714,-10.3604771784232,2.3));
#1677=CARTESIAN_POINT('Origin',(0.400000000000001,-19.25,2.425));
#1678=CARTESIAN_POINT('',(0.600000000000001,-18.5,2.8));
#1679=CARTESIAN_POINT('',(2.8701244813278,-9.98703319502075,2.8));
#1680=CARTESIAN_POINT('',(0.600000000000001,-18.5,2.425));
#1681=CARTESIAN_POINT('Origin',(-5.05,-19.25,2.425));
#1682=CARTESIAN_POINT('',(-4.85,-18.5,2.8));
#1683=CARTESIAN_POINT('',(-2.59647302904564,-10.0492738589212,2.8));
#1684=CARTESIAN_POINT('',(-4.85,-18.5,2.425));
#1685=CARTESIAN_POINT('Origin',(5.05,-19.25,2.675));
#1686=CARTESIAN_POINT('',(4.85,-18.5,2.3));
#1687=CARTESIAN_POINT('',(5.25,-20.,2.3));
#1688=CARTESIAN_POINT('',(2.59647302904564,-10.0492738589212,2.3));
#1689=CARTESIAN_POINT('',(5.25,-20.,2.8));
#1690=CARTESIAN_POINT('',(5.25,-20.,2.675));
#1691=CARTESIAN_POINT('',(4.85,-18.5,2.8));
#1692=CARTESIAN_POINT('',(2.66286307053942,-10.2982365145228,2.8));
#1693=CARTESIAN_POINT('',(4.85,-18.5,2.675));
#1694=CARTESIAN_POINT('Origin',(5.45,-20.,2.55));
#1695=CARTESIAN_POINT('',(5.65,-20.,2.3));
#1696=CARTESIAN_POINT('',(4.85,-20.,2.3));
#1697=CARTESIAN_POINT('',(5.65,-20.,2.8));
#1698=CARTESIAN_POINT('',(5.65,-20.,2.425));
#1699=CARTESIAN_POINT('',(6.05,-20.,2.8));
#1700=CARTESIAN_POINT('Origin',(4.45,0.300000000000001,2.3));
#1701=CARTESIAN_POINT('',(4.85,-4.1,2.3));
#1702=CARTESIAN_POINT('',(4.85,-4.1,2.3));
#1703=CARTESIAN_POINT('',(4.45,-4.1,2.3));
#1704=CARTESIAN_POINT('',(4.45,-4.1,2.3));
#1705=CARTESIAN_POINT('',(4.45,0.019354838709677,2.3));
#1706=CARTESIAN_POINT('',(4.45,0.300000000000001,2.3));
#1707=CARTESIAN_POINT('',(6.45,0.0193548387096771,2.3));
#1708=CARTESIAN_POINT('',(6.25,0.019354838709677,2.3));
#1709=CARTESIAN_POINT('',(6.45,-4.1,2.3));
#1710=CARTESIAN_POINT('',(6.45,0.300000000000001,2.3));
#1711=CARTESIAN_POINT('',(6.05,-4.1,2.3));
#1712=CARTESIAN_POINT('',(4.45,-4.1,2.3));
#1713=CARTESIAN_POINT('',(6.05,-18.5,2.3));
#1714=CARTESIAN_POINT('',(6.05,-4.1,2.3));
#1715=CARTESIAN_POINT('',(8.23713692946058,-10.2982365145228,2.3));
#1716=CARTESIAN_POINT('Origin',(5.85,-19.25,2.425));
#1717=CARTESIAN_POINT('',(6.05,-18.5,2.8));
#1718=CARTESIAN_POINT('',(8.30352697095436,-10.0492738589212,2.8));
#1719=CARTESIAN_POINT('',(6.05,-18.5,2.425));
#1720=CARTESIAN_POINT('Origin',(6.75,3.2,0.));
#1721=CARTESIAN_POINT('',(-6.75000000000001,3.2,-0.01));
#1722=CARTESIAN_POINT('',(-6.75000000000001,3.2,0.));
#1723=CARTESIAN_POINT('',(6.75,3.2,-0.01));
#1724=CARTESIAN_POINT('',(6.75,3.2,-0.01));
#1725=CARTESIAN_POINT('',(6.75,3.2,0.));
#1726=CARTESIAN_POINT('Origin',(6.75,17.7,0.));
#1727=CARTESIAN_POINT('',(6.75,17.7,-0.01));
#1728=CARTESIAN_POINT('',(6.75,19.2,-0.01));
#1729=CARTESIAN_POINT('',(6.75,17.7,0.));
#1730=CARTESIAN_POINT('Origin',(5.25,17.7,0.));
#1731=CARTESIAN_POINT('',(5.25,19.2,-0.01));
#1732=CARTESIAN_POINT('Origin',(5.25,17.7,-0.01));
#1733=CARTESIAN_POINT('',(5.25,19.2,0.));
#1734=CARTESIAN_POINT('Origin',(-5.25,19.2,0.));
#1735=CARTESIAN_POINT('',(-5.25,19.2,-0.01));
#1736=CARTESIAN_POINT('',(-6.75,19.2,-0.01));
#1737=CARTESIAN_POINT('',(-5.25,19.2,0.));
#1738=CARTESIAN_POINT('Origin',(-5.25,17.7,0.));
#1739=CARTESIAN_POINT('',(-6.75,17.7,-0.01));
#1740=CARTESIAN_POINT('Origin',(-5.25,17.7,-0.01));
#1741=CARTESIAN_POINT('',(-6.75,17.7,0.));
#1742=CARTESIAN_POINT('Origin',(-6.75000000000001,3.2,0.));
#1743=CARTESIAN_POINT('',(-6.75000000000001,3.2,-0.01));
#1744=CARTESIAN_POINT('Origin',(-1.11022302462516E-15,11.2,-0.01));
#1745=CARTESIAN_POINT('Origin',(7.05,15.4,2.1));
#1746=CARTESIAN_POINT('Origin',(-7.05000000000001,15.4,2.1));
#1747=CARTESIAN_POINT('Origin',(4.85,-4.1,2.8));
#1748=CARTESIAN_POINT('',(4.85,-4.1,2.8));
#1749=CARTESIAN_POINT('',(4.85,-4.1,2.8));
#1750=CARTESIAN_POINT('',(4.85,-4.1,2.675));
#1751=CARTESIAN_POINT('Origin',(6.05,-4.1,2.3));
#1752=CARTESIAN_POINT('',(6.05,-4.1,2.8));
#1753=CARTESIAN_POINT('',(6.05,-4.1,2.425));
#1754=CARTESIAN_POINT('',(6.05,-4.1,2.8));
#1755=CARTESIAN_POINT('Origin',(-0.600000000000002,-4.1,2.8));
#1756=CARTESIAN_POINT('',(-0.600000000000002,-4.1,2.8));
#1757=CARTESIAN_POINT('',(-0.600000000000002,-4.1,2.8));
#1758=CARTESIAN_POINT('',(-0.600000000000002,-4.1,2.675));
#1759=CARTESIAN_POINT('Origin',(0.599999999999999,-4.1,2.3));
#1760=CARTESIAN_POINT('',(0.599999999999999,-4.1,2.8));
#1761=CARTESIAN_POINT('',(0.599999999999999,-4.1,2.425));
#1762=CARTESIAN_POINT('',(0.599999999999999,-4.1,2.8));
#1763=CARTESIAN_POINT('Origin',(-6.05,-4.1,2.8));
#1764=CARTESIAN_POINT('',(-6.05,-4.1,2.8));
#1765=CARTESIAN_POINT('',(-6.05,-4.1,2.8));
#1766=CARTESIAN_POINT('',(-6.05,-4.1,2.675));
#1767=CARTESIAN_POINT('Origin',(-4.85,-4.1,2.3));
#1768=CARTESIAN_POINT('',(-4.85,-4.1,2.8));
#1769=CARTESIAN_POINT('',(-4.85,-4.1,2.425));
#1770=CARTESIAN_POINT('',(-4.85,-4.1,2.8));
#1771=CARTESIAN_POINT('Origin',(5.45,-4.1,2.55));
#1772=CARTESIAN_POINT('',(4.45,-4.1,2.8));
#1773=CARTESIAN_POINT('',(6.45,-4.1,2.8));
#1774=CARTESIAN_POINT('',(4.45,-4.1,2.8));
#1775=CARTESIAN_POINT('Origin',(5.45,-4.1,2.55));
#1776=CARTESIAN_POINT('',(6.45,-4.1,2.8));
#1777=CARTESIAN_POINT('',(6.45,-4.1,2.3));
#1778=CARTESIAN_POINT('',(6.45,-4.1,2.8));
#1779=CARTESIAN_POINT('Origin',(-5.55111512312578E-16,-4.1,2.55));
#1780=CARTESIAN_POINT('',(-1.5,-4.1,2.8));
#1781=CARTESIAN_POINT('',(1.5,-4.1,2.8));
#1782=CARTESIAN_POINT('',(-1.5,-4.1,2.8));
#1783=CARTESIAN_POINT('Origin',(-5.55111512312578E-16,-4.1,2.55));
#1784=CARTESIAN_POINT('',(1.5,-4.1,2.8));
#1785=CARTESIAN_POINT('',(1.5,-4.1,2.3));
#1786=CARTESIAN_POINT('',(1.5,-4.1,2.8));
#1787=CARTESIAN_POINT('Origin',(-5.45,-4.1,2.55));
#1788=CARTESIAN_POINT('',(-6.45,-4.1,2.8));
#1789=CARTESIAN_POINT('',(-4.45,-4.1,2.8));
#1790=CARTESIAN_POINT('',(-6.45,-4.1,2.8));
#1791=CARTESIAN_POINT('Origin',(-5.45,-4.1,2.55));
#1792=CARTESIAN_POINT('',(-4.45,-4.1,2.8));
#1793=CARTESIAN_POINT('',(-4.45,-4.1,2.3));
#1794=CARTESIAN_POINT('',(-4.45,-4.1,2.8));
#1795=CARTESIAN_POINT('Origin',(8.05,-6.24500451351651E-16,2.1));
#1796=CARTESIAN_POINT('',(8.05,-5.89805981832114E-16,2.1));
#1797=CARTESIAN_POINT('',(-4.45,0.0677419354838703,2.8));
#1798=CARTESIAN_POINT('',(-6.45,0.0677419354838703,2.8));
#1799=CARTESIAN_POINT('',(1.8,0.0677419354838703,2.8));
#1800=CARTESIAN_POINT('',(-4.45,0.0109793814432983,2.21345360824742));
#1801=CARTESIAN_POINT('',(-6.45,0.0349484536082468,2.46113402061856));
#1802=CARTESIAN_POINT('',(-1.5,0.0677419354838703,2.8));
#1803=CARTESIAN_POINT('',(-1.5,0.0349484536082467,2.46113402061856));
#1804=CARTESIAN_POINT('',(1.5,0.0677419354838703,2.8));
#1805=CARTESIAN_POINT('',(4.775,0.0677419354838703,2.8));
#1806=CARTESIAN_POINT('',(1.5,0.0109793814432983,2.21345360824742));
#1807=CARTESIAN_POINT('',(4.45,0.0677419354838704,2.8));
#1808=CARTESIAN_POINT('',(4.45,0.0349484536082468,2.46113402061856));
#1809=CARTESIAN_POINT('',(6.45,0.0677419354838704,2.8));
#1810=CARTESIAN_POINT('',(7.25,0.0677419354838704,2.8));
#1811=CARTESIAN_POINT('',(6.45,0.0109793814432984,2.21345360824742));
#1812=CARTESIAN_POINT('Origin',(8.05,0.299999999999999,-2.77555756156289E-16));
#1813=CARTESIAN_POINT('Origin',(6.45,0.300000000000001,2.3));
#1814=CARTESIAN_POINT('',(6.45,0.300000000000001,2.8));
#1815=CARTESIAN_POINT('Origin',(6.45,0.300000000000001,2.8));
#1816=CARTESIAN_POINT('',(4.45,0.300000000000001,2.8));
#1817=CARTESIAN_POINT('Origin',(1.5,0.3,2.3));
#1818=CARTESIAN_POINT('',(1.5,0.3,2.8));
#1819=CARTESIAN_POINT('Origin',(1.5,0.3,2.8));
#1820=CARTESIAN_POINT('',(-1.5,0.3,2.8));
#1821=CARTESIAN_POINT('Origin',(-4.45,0.299999999999999,2.3));
#1822=CARTESIAN_POINT('',(-4.45,0.299999999999999,2.8));
#1823=CARTESIAN_POINT('Origin',(4.45,0.300000000000001,2.8));
#1824=CARTESIAN_POINT('Origin',(-1.5,0.3,2.8));
#1825=CARTESIAN_POINT('Origin',(-4.45,0.299999999999999,2.8));
#1826=CARTESIAN_POINT('',(-6.45,0.299999999999999,2.8));
#1827=CARTESIAN_POINT('Origin',(-6.45,0.299999999999999,2.8));
#1828=UNCERTAINTY_MEASURE_WITH_UNIT(LENGTH_MEASURE(0.01),#1832,
'DISTANCE_ACCURACY_VALUE',
'Maximum model space distance between geometric entities at asserted c
onnectivities');
#1829=UNCERTAINTY_MEASURE_WITH_UNIT(LENGTH_MEASURE(0.01),#1832,
'DISTANCE_ACCURACY_VALUE',
'Maximum model space distance between geometric entities at asserted c
onnectivities');
#1830=(
GEOMETRIC_REPRESENTATION_CONTEXT(3)
GLOBAL_UNCERTAINTY_ASSIGNED_CONTEXT((#1828))
GLOBAL_UNIT_ASSIGNED_CONTEXT((#1832,#1834,#1835))
REPRESENTATION_CONTEXT('','3D')
);
#1831=(
GEOMETRIC_REPRESENTATION_CONTEXT(3)
GLOBAL_UNCERTAINTY_ASSIGNED_CONTEXT((#1829))
GLOBAL_UNIT_ASSIGNED_CONTEXT((#1832,#1834,#1835))
REPRESENTATION_CONTEXT('','3D')
);
#1832=(
LENGTH_UNIT()
NAMED_UNIT(*)
SI_UNIT(.MILLI.,.METRE.)
);
#1833=(
LENGTH_UNIT()
NAMED_UNIT(*)
SI_UNIT(.CENTI.,.METRE.)
);
#1834=(
NAMED_UNIT(*)
PLANE_ANGLE_UNIT()
SI_UNIT($,.RADIAN.)
);
#1835=(
NAMED_UNIT(*)
SI_UNIT($,.STERADIAN.)
SOLID_ANGLE_UNIT()
);
#1836=SHAPE_DEFINITION_REPRESENTATION(#1837,#1838);
#1837=PRODUCT_DEFINITION_SHAPE('',$,#1840);
#1838=SHAPE_REPRESENTATION('',(#1168),#1830);
#1839=PRODUCT_DEFINITION_CONTEXT('part definition',#1844,'design');
#1840=PRODUCT_DEFINITION('PLUS-247-3L','PLUS-247-3L',#1841,#1839);
#1841=PRODUCT_DEFINITION_FORMATION('',$,#1846);
#1842=PRODUCT_RELATED_PRODUCT_CATEGORY('PLUS-247-3L','PLUS-247-3L',(#1846));
#1843=APPLICATION_PROTOCOL_DEFINITION('international standard',
'automotive_design',2009,#1844);
#1844=APPLICATION_CONTEXT(
'Core Data for Automotive Mechanical Design Process');
#1845=PRODUCT_CONTEXT('part definition',#1844,'mechanical');
#1846=PRODUCT('PLUS-247-3L','PLUS-247-3L',$,(#1845));
#1847=PRESENTATION_STYLE_ASSIGNMENT((#1849));
#1848=PRESENTATION_STYLE_ASSIGNMENT((#1850));
#1849=SURFACE_STYLE_USAGE(.BOTH.,#1855);
#1850=SURFACE_STYLE_USAGE(.BOTH.,#1856);
#1851=SURFACE_STYLE_RENDERING_WITH_PROPERTIES($,#1863,(#1853));
#1852=SURFACE_STYLE_RENDERING_WITH_PROPERTIES($,#1864,(#1854));
#1853=SURFACE_STYLE_TRANSPARENT(0.);
#1854=SURFACE_STYLE_TRANSPARENT(0.);
#1855=SURFACE_SIDE_STYLE('',(#1857,#1851));
#1856=SURFACE_SIDE_STYLE('',(#1858,#1852));
#1857=SURFACE_STYLE_FILL_AREA(#1859);
#1858=SURFACE_STYLE_FILL_AREA(#1860);
#1859=FILL_AREA_STYLE('',(#1861));
#1860=FILL_AREA_STYLE('',(#1862));
#1861=FILL_AREA_STYLE_COLOUR('',#1863);
#1862=FILL_AREA_STYLE_COLOUR('',#1864);
#1863=COLOUR_RGB('',0.749019607843137,0.749019607843137,0.749019607843137);
#1864=COLOUR_RGB('',0.411764705882353,0.411764705882353,0.411764705882353);
ENDSEC;
END-ISO-10303-21;
